<?xml version="1.0" encoding="UTF-8" standalone="no"?>
<svg
   xmlns:dc="http://purl.org/dc/elements/1.1/"
   xmlns:cc="http://creativecommons.org/ns#"
   xmlns:rdf="http://www.w3.org/1999/02/22-rdf-syntax-ns#"
   xmlns:svg="http://www.w3.org/2000/svg"
   xmlns="http://www.w3.org/2000/svg"
   xmlns:sodipodi="http://sodipodi.sourceforge.net/DTD/sodipodi-0.dtd"
   xmlns:inkscape="http://www.inkscape.org/namespaces/inkscape"
   width="412.14713"
   height="123.44057"
   viewBox="0 0 412.14713 123.44057"
   id="svg2"
   version="1.1"
   inkscape:version="0.91 r13725"
   sodipodi:docname="test2.svg">
  <metadata
     id="metadata18">
    <rdf:RDF>
      <cc:Work
         rdf:about="">
        <dc:format>image/svg+xml</dc:format>
        <dc:type
           rdf:resource="http://purl.org/dc/dcmitype/StillImage" />
        <dc:title></dc:title>
      </cc:Work>
    </rdf:RDF>
  </metadata>
  <defs
     id="defs16" />
  <sodipodi:namedview
     pagecolor="#ffffff"
     bordercolor="#666666"
     borderopacity="1"
     objecttolerance="10"
     gridtolerance="10"
     guidetolerance="10"
     inkscape:pageopacity="0"
     inkscape:pageshadow="2"
     inkscape:window-width="1920"
     inkscape:window-height="1016"
     id="namedview14"
     showgrid="false"
     inkscape:snap-bbox="true"
     fit-margin-top="10"
     fit-margin-left="10"
     fit-margin-right="10"
     fit-margin-bottom="10"
     inkscape:bbox-paths="true"
     inkscape:bbox-nodes="true"
     inkscape:snap-bbox-edge-midpoints="true"
     inkscape:snap-bbox-midpoints="true"
     inkscape:zoom="1.4142136"
     inkscape:cx="227.77508"
     inkscape:cy="57.226806"
     inkscape:window-x="1920"
     inkscape:window-y="27"
     inkscape:window-maximized="1"
     inkscape:current-layer="svg2" />
  <style
     type="text/css"
     id="style4">.st0{fill:#00407A;} .st1{fill:#54BCEB;} .st2{fill:none;} .st3{fill:#FFFFFF;}</style>
  <path
     inkscape:connector-curvature="0"
     class="st0"
     d="m 14.949747,10 98.490823,0 0,103.44057 -98.490823,0 z"
     id="path6-3-7"
     style="fill:#54bceb;fill-opacity:1" />
  <path
     inkscape:connector-curvature="0"
     class="st0"
     d="m 121.83934,20.398787 279.3078,0 0,93.041783 -279.3078,0 z"
     id="path6-3"
     style="fill:#00407a;fill-opacity:1" />
  <path
     inkscape:connector-curvature="0"
     class="st0"
     d="m 14.949747,20.398787 97.490823,0 0,93.041783 -97.490823,0 z"
     id="path6"
     style="fill:#00407a;fill-opacity:1" />
  <path
     sodipodi:nodetypes="ccccccc"
     style="fill:#54bceb"
     inkscape:connector-curvature="0"
     class="st1"
     d="m 112.44057,10 0,103.44057 10.39879,0 0,-93.041783 279.30776,0 0,-10.398787 z"
     id="path8" />
  <path
     style="fill:none"
     inkscape:connector-curvature="0"
     class="st2"
     d="m 143.4545,51.412713 237.89505,0 0,31.013926 -237.89505,0 z"
     id="path10" />
  <path
     style="fill:#ffffff"
     inkscape:connector-curvature="0"
     class="st3"
     d="m 143.4545,51.412713 9.30417,0 0,10.763657 8.20957,-10.763657 11.31096,0 -10.94609,12.040701 12.588,18.973225 -11.49339,0 -7.47983,-12.0407 -2.55409,2.918957 0,9.121743 -8.9393,0 0,-31.013926 z m 58.56158,18.973226 c 0,8.574438 -4.56087,12.77044 -13.68261,12.77044 -9.12175,0 -13.68262,-4.196002 -13.68262,-12.77044 l 0,-18.973226 9.30418,0 0,16.966442 c 0,3.101393 0,7.11496 4.56087,7.11496 4.37844,0 4.37844,-4.013567 4.37844,-7.11496 l 0,-16.966442 9.30418,0 0,18.973226 z m 13.50018,-18.973226 9.30418,0 0,22.986793 13.13531,0 0,8.027133 -22.43949,0 0,-31.013926 z m 25.17601,0 24.62871,0 0,7.844699 -15.50696,0 0,3.831132 14.04748,0 0,7.297395 -14.04748,0 0,3.831132 15.87183,0 0,8.027134 -24.99358,0 0,-30.831492 z m 54.9129,18.973226 c 0,8.574438 -4.56088,12.77044 -13.68262,12.77044 -9.12174,0 -13.68261,-4.196002 -13.68261,-12.77044 l 0,-18.973226 9.30417,0 0,16.966442 c 0,3.101393 0,7.11496 4.56088,7.11496 4.37843,0 4.37843,-4.013567 4.37843,-7.11496 l 0,-16.966442 9.30418,0 0,18.973226 z m 20.61513,12.0407 -10.39878,0 -8.93931,-31.013926 9.30418,0 4.92574,18.790791 4.92574,-18.790791 9.48661,0 -9.30418,31.013926 z m 10.58123,-31.013926 24.6287,0 0,7.844699 -15.50696,0 0,3.831132 14.04748,0 0,7.297395 -14.04748,0 0,3.831132 15.87183,0 0,8.027134 -24.99357,0 0,-30.831492 z m 27.54766,0 9.48661,0 8.75688,16.601572 0,-16.601572 8.75687,0 0,31.013926 -8.93931,0 -9.12174,-16.966442 0,16.966442 -8.75687,0 0,-31.013926 z"
     id="path12" />
  <g
     transform="matrix(0.96325529,0,0,0.96325529,-285.23114,-354.97129)"
     id="layer1-3"
     inkscape:label="Layer 1"
     style="opacity:1;fill:#ffffff;fill-opacity:1">
    <path
       style="font-style:normal;font-variant:normal;font-weight:800;font-stretch:normal;font-size:281.1619873px;line-height:100%;font-family:Raleway;-inkscape-font-specification:'Raleway Ultra-Bold';letter-spacing:0px;word-spacing:0px;baseline-shift:baseline;display:inline;fill:#ffffff;fill-opacity:1;stroke:none;stroke-width:1px;stroke-linecap:butt;stroke-linejoin:miter;stroke-opacity:1"
       d="m 325.35714,400.57649 0,75 16.98858,0 0,-44.89448 15.95306,32.64078 9.11602,0 15.95306,-32.64078 0,44.89448 16.98928,0 0,-75 -18.33568,0 -19.16467,39.18994 -19.06033,-39.18994 z m 61.62173,30.04462 9.38444,0 0,3.27273 -5.70293,0 0,1.92549 4.87177,0 0,3.04233 -4.87177,0 0,2.15661 5.87275,0 0,3.27348 -9.55426,0 z m 5.09484,14.8462 c 1.19589,0 2.24085,0.27575 3.13462,0.82772 0.89378,0.53913 1.55453,1.25806 1.98253,2.15662 l -2.81369,2.04144 c -0.11328,-0.33375 -0.26452,-0.61024 -0.45335,-0.82846 -0.17623,-0.21822 -0.37104,-0.39117 -0.58504,-0.51954 -0.21399,-0.12836 -0.44085,-0.21869 -0.68004,-0.27003 -0.23918,-0.0514 -0.45918,-0.0771 -0.6606,-0.0771 -0.46577,0 -0.86834,0.10906 -1.20822,0.32729 -0.3273,0.20538 -0.60456,0.48187 -0.83115,0.82845 -0.214,0.33376 -0.37135,0.71856 -0.47206,1.155 -0.10071,0.42361 -0.15112,0.84733 -0.15112,1.27093 0,0.47495 0.0565,0.93063 0.16982,1.36706 0.1259,0.43644 0.30233,0.82126 0.52892,1.15501 0.23918,0.33375 0.52256,0.60399 0.84985,0.80937 0.3399,0.19256 0.72338,0.28839 1.15138,0.28839 0.21401,0 0.43473,-0.0257 0.66133,-0.0771 0.22659,-0.0642 0.44047,-0.16001 0.64189,-0.28838 0.214,-0.14121 0.40269,-0.31488 0.56634,-0.52027 0.17623,-0.21821 0.3145,-0.48148 0.4152,-0.78956 l 3.00294,1.82936 c -0.18882,0.50062 -0.47832,0.95005 -0.86856,1.34798 -0.37766,0.39793 -0.81228,0.73132 -1.30322,1.00091 -0.49095,0.26956 -1.01342,0.47518 -1.56731,0.61638 -0.55389,0.14121 -1.09546,0.21207 -1.62416,0.21207 -0.93155,0 -1.7871,-0.19938 -2.56758,-0.59731 -0.78047,-0.41078 -1.45418,-0.9498 -2.02066,-1.61729 -0.55389,-0.6675 -0.98778,-1.42463 -1.3025,-2.27184 -0.3147,-0.84721 -0.47206,-1.70716 -0.47206,-2.58003 0,-0.83439 0.14439,-1.65612 0.43393,-2.46483 0.28953,-0.80871 0.71119,-1.53388 1.26507,-2.17572 0.56648,-0.64182 1.24631,-1.16211 2.03938,-1.56004 0.80565,-0.39794 1.71845,-0.59658 2.73812,-0.59657 z m -0.16191,14.94231 c 0.95671,0 1.82523,0.19938 2.60571,0.59732 0.79306,0.39793 1.46677,0.92445 2.02066,1.57913 0.56648,0.65467 1.00109,1.39857 1.30322,2.23295 0.30212,0.83437 0.45264,1.68806 0.45264,2.56095 0,0.89856 -0.16349,1.76547 -0.49079,2.59985 -0.31471,0.82153 -0.75544,1.55295 -1.32192,2.19478 -0.56647,0.629 -1.2463,1.13607 -2.03938,1.52117 -0.79307,0.38509 -1.66158,0.57749 -2.60571,0.57749 -0.95672,0 -1.83135,-0.19864 -2.62441,-0.59657 -0.78048,-0.39795 -1.45419,-0.91823 -2.02067,-1.56005 -0.55389,-0.65467 -0.98778,-1.39932 -1.30249,-2.23368 -0.30213,-0.83439 -0.45336,-1.69432 -0.45336,-2.58004 0,-0.89856 0.15735,-1.76475 0.47206,-2.59911 0.3273,-0.83439 0.78029,-1.5658 1.35935,-2.1948 0.57906,-0.64182 1.25889,-1.1489 2.03938,-1.52115 0.79306,-0.38511 1.66158,-0.57825 2.60571,-0.57825 z m -0.0562,3.33144 c -0.46577,0 -0.86906,0.10281 -1.20895,0.3082 -0.3273,0.20539 -0.60384,0.48113 -0.83043,0.82772 -0.21399,0.33375 -0.37819,0.71856 -0.49149,1.155 -0.10071,0.42361 -0.15111,0.86055 -0.15111,1.30983 0,0.46212 0.0504,0.91155 0.15111,1.34799 0.1133,0.4236 0.28362,0.80217 0.51021,1.13592 0.22658,0.33375 0.50997,0.60327 0.84986,0.80865 0.33988,0.20538 0.73633,0.30819 1.18951,0.30819 0.46577,0 0.86834,-0.10281 1.20823,-0.30819 0.33988,-0.21822 0.61715,-0.49398 0.83114,-0.82773 0.21401,-0.34659 0.37136,-0.73836 0.47207,-1.1748 0.11329,-0.43645 0.16983,-0.87963 0.16983,-1.32891 0,-0.46212 -0.0565,-0.90457 -0.16983,-1.32819 -0.1133,-0.43643 -0.28361,-0.81499 -0.51021,-1.13591 -0.21399,-0.33376 -0.49053,-0.59701 -0.83042,-0.78957 -0.33988,-0.20537 -0.73633,-0.3082 -1.18952,-0.3082 z"
       id="path4270-2-6"
       inkscape:connector-curvature="0"
       sodipodi:nodetypes="cccccccccccccccccccccccccccsccccssscccscccsccccccssscccssccssccssccsscccscccsscccscccscccscccs" />
  </g>
</svg>
