<?xml version="1.0" encoding="UTF-8" standalone="no"?>
<!-- Created with Inkscape (http://www.inkscape.org/) -->

<svg
   xmlns:dc="http://purl.org/dc/elements/1.1/"
   xmlns:cc="http://creativecommons.org/ns#"
   xmlns:rdf="http://www.w3.org/1999/02/22-rdf-syntax-ns#"
   xmlns:svg="http://www.w3.org/2000/svg"
   xmlns="http://www.w3.org/2000/svg"
   xmlns:sodipodi="http://sodipodi.sourceforge.net/DTD/sodipodi-0.dtd"
   xmlns:inkscape="http://www.inkscape.org/namespaces/inkscape"
   width="83.199677mm"
   height="79.606918mm"
   viewBox="0 0 83.199677 79.606918"
   version="1.1"
   id="svg8"
   inkscape:version="0.92.3 (2405546, 2018-03-11)"
   sodipodi:docname="cost_vs_income1.svg">
  <defs
     id="defs2">
    <inkscape:path-effect
       only_selected="false"
       apply_with_weight="true"
       apply_no_weight="true"
       helper_size="0"
       steps="2"
       weight="33.333333"
       is_visible="true"
       id="path-effect1250"
       effect="bspline" />
    <inkscape:path-effect
       effect="bspline"
       id="path-effect1246"
       is_visible="true"
       weight="33.333333"
       steps="2"
       helper_size="0"
       apply_no_weight="true"
       apply_with_weight="true"
       only_selected="false" />
    <inkscape:path-effect
       effect="bspline"
       id="path-effect1175"
       is_visible="true"
       weight="33.333333"
       steps="2"
       helper_size="0"
       apply_no_weight="true"
       apply_with_weight="true"
       only_selected="false" />
    <inkscape:path-effect
       effect="bspline"
       id="path-effect1171"
       is_visible="true"
       weight="33.333333"
       steps="2"
       helper_size="0"
       apply_no_weight="true"
       apply_with_weight="true"
       only_selected="false" />
    <inkscape:path-effect
       effect="bspline"
       id="path-effect825"
       is_visible="true"
       weight="33.333333"
       steps="2"
       helper_size="0"
       apply_no_weight="true"
       apply_with_weight="true"
       only_selected="false" />
    <inkscape:path-effect
       effect="bspline"
       id="path-effect821"
       is_visible="true"
       weight="33.333333"
       steps="2"
       helper_size="0"
       apply_no_weight="true"
       apply_with_weight="true"
       only_selected="false" />
    <inkscape:path-effect
       effect="bspline"
       id="path-effect1171-3"
       is_visible="true"
       weight="33.333333"
       steps="2"
       helper_size="0"
       apply_no_weight="true"
       apply_with_weight="true"
       only_selected="false" />
  </defs>
  <sodipodi:namedview
     id="base"
     pagecolor="#ffffff"
     bordercolor="#666666"
     borderopacity="1.0"
     inkscape:pageopacity="0.0"
     inkscape:pageshadow="2"
     inkscape:zoom="1.4"
     inkscape:cx="-25.695227"
     inkscape:cy="147.92968"
     inkscape:document-units="mm"
     inkscape:current-layer="layer1"
     showgrid="false"
     inkscape:snap-global="false"
     fit-margin-top="0"
     fit-margin-left="0"
     fit-margin-right="0"
     fit-margin-bottom="0"
     inkscape:window-width="1920"
     inkscape:window-height="960"
     inkscape:window-x="0"
     inkscape:window-y="27"
     inkscape:window-maximized="1" />
  <metadata
     id="metadata5">
    <rdf:RDF>
      <cc:Work
         rdf:about="">
        <dc:format>image/svg+xml</dc:format>
        <dc:type
           rdf:resource="http://purl.org/dc/dcmitype/StillImage" />
        <dc:title></dc:title>
      </cc:Work>
    </rdf:RDF>
  </metadata>
  <g
     inkscape:label="Layer 1"
     inkscape:groupmode="layer"
     id="layer1"
     transform="translate(-40.157021,-89.274321)">
    <path
       style="fill:none;stroke:#000000;stroke-width:1;stroke-linecap:round;stroke-linejoin:round;stroke-miterlimit:4;stroke-dasharray:none;stroke-opacity:1"
       d="m 50.21548,90.703281 c -0.125798,1.824068 -0.25179,3.650955 -0.283346,5.480386 -0.03156,1.829431 0.03127,3.651484 0.125875,5.039153 0.0946,1.38767 0.220167,2.3294 0.283314,3.90765 0.06315,1.57825 0.06315,3.77602 0.06315,5.19497 0,1.41894 0,2.04585 -0.03159,2.52007 -0.03159,0.47423 -0.0938,0.78527 -0.157369,2.3104 -0.06357,1.52513 -0.125964,4.20785 -0.09446,5.94183 0.03151,1.73398 0.157065,2.48733 0.283388,3.93991 0.126324,1.45258 0.251864,3.58677 0.283406,5.66779 0.03154,2.08102 -0.03131,4.09234 -0.03132,5.953 -9e-6,1.86065 0.06283,3.55718 0.06285,4.59799 2.9e-5,1.04081 -0.06243,1.41557 -0.03076,1.76461 0.03167,0.34904 0.156271,0.66054 0.09307,3.06364 -0.06321,2.4031 -0.314086,6.8562 -0.56621,11.3314"
       id="path819"
       inkscape:connector-curvature="0"
       inkscape:path-effect="#path-effect821"
       inkscape:original-d="m 50.21548,90.703281 c -0.125553,1.824085 -0.251545,3.650972 -0.377976,5.480655 0.06335,1.829152 0.126176,3.651206 0.188987,5.480654 0.126415,0.94586 0.25198,1.88759 0.377978,2.83482 2.64e-4,2.20931 2.64e-4,4.40708 0,6.61459 2.65e-4,0.63038 2.65e-4,1.25729 0,1.88988 -0.06297,0.3159 -0.125178,0.62694 -0.188989,0.94494 -0.06328,2.73223 -0.125672,5.41495 -0.188989,8.12649 0.12637,0.75636 0.251929,1.50971 0.377978,2.26785 0.126577,2.14705 0.252117,4.28124 0.377976,6.4256 -0.0628,2.01771 -0.125652,4.02903 -0.188989,6.04762 0.06334,1.7027 0.126172,3.39923 0.188989,5.10268 -0.06282,0.37822 -0.125278,0.75298 -0.188989,1.13392 0.127157,0.31697 0.251758,0.62847 0.377976,0.94494 -0.252701,4.48987 -0.50358,8.94297 -0.755953,13.41816"
       sodipodi:nodetypes="ccccccccccccccc" />
    <path
       style="fill:none;stroke:#000000;stroke-width:1;stroke-linecap:round;stroke-linejoin:round;stroke-miterlimit:4;stroke-dasharray:none;stroke-opacity:1"
       inkscape:path-effect="#path-effect825"
       inkscape:original-d="m 122.08631,158.66071 c -1.00529,0.0603 -2.01323,0.12339 -3.02381,0.18899 -1.06829,-0.003 -2.13922,-0.003 -3.2128,0 -2.07622,0.37533 -4.15509,0.75331 -6.23661,1.13393 -1.69824,-0.50662 -3.39914,-1.01058 -5.10267,-1.5119 -0.69032,-0.0657 -1.38327,-0.12869 -2.07887,-0.18899 -2.07623,0.18634 -4.155096,0.37533 -6.23661,0.56696 -0.312336,0.12335 -0.627314,0.24934 -0.944941,0.37798 -0.690311,-0.003 -1.383266,-0.003 -2.078868,0 -1.635252,0.12334 -3.273148,0.24933 -4.913691,0.37797 -1.068287,-0.003 -2.13922,-0.003 -3.212799,0 -0.879297,0.18635 -1.761241,0.37533 -2.645833,0.56697 -1.320271,-0.19164 -2.643187,-0.38062 -3.96875,-0.56697 -2.58019,-0.38062 -5.163029,-0.75859 -7.748511,-1.13392 -1.383268,0.0603 -2.769179,0.12338 -4.157739,0.18898 -3.71412,-0.0656 -7.430886,-0.12868 -11.150298,-0.18898 -1.706785,-0.33853 -3.415552,-0.67714 -5.126304,-1.01582"
       d="m 122.08631,158.66071 c -1.00513,0.0628 -2.01308,0.12582 -3.05259,0.1574 -1.03951,0.0316 -2.11044,0.0316 -3.68515,0.2203 -1.57471,0.18872 -3.65358,0.56669 -5.54412,0.50423 -1.89054,-0.0625 -3.59143,-0.56644 -4.78802,-0.85006 -1.1966,-0.28363 -1.88954,-0.34663 -3.27522,-0.28387 -1.38567,0.0628 -3.464539,0.25174 -4.661299,0.40873 -1.19676,0.15698 -1.511737,0.28297 -2.01598,0.3466 -0.504243,0.0636 -1.197198,0.0636 -2.362531,0.12653 -1.165334,0.0629 -2.80323,0.18887 -4.157738,0.25198 -1.354509,0.0631 -2.425442,0.0631 -3.401668,0.15727 -0.976225,0.0942 -1.858167,0.28315 -2.961024,0.28364 -1.102857,4.9e-4 -2.425772,-0.1885 -4.378654,-0.47198 -1.952883,-0.28348 -4.535721,-0.66145 -6.519821,-0.81917 -1.984099,-0.15771 -3.370014,-0.0947 -5.921433,-0.0946 -2.551419,8e-5 -6.268186,-0.0629 -8.981292,-0.26354 -2.713105,-0.20064 -4.421873,-0.53924 -6.132564,-0.87823"
       id="path1199"
       inkscape:connector-curvature="0" />
    <path
       style="fill:none;stroke:#000000;stroke-width:1;stroke-linecap:round;stroke-linejoin:round;stroke-miterlimit:4;stroke-dasharray:2.00000006, 2.00000006;stroke-dashoffset:0;stroke-opacity:1"
       inkscape:path-effect="#path-effect825"
       inkscape:original-d="m 50.247206,157.45591 c 0,0 0.899369,-0.83627 1.346544,-1.25204 0.128638,-0.19164 0.25463,-0.38062 0.377976,-0.56697 0.317626,-0.0656 0.632606,-0.12863 0.944941,-0.18898 0.947586,-0.88459 1.892527,-1.76654 2.834821,-2.64584 1.199571,-0.82159 2.396495,-1.64054 3.590774,-2.45684 0.443618,-0.50662 0.88459,-1.01058 1.322917,-1.51191 0.317626,-0.19163 0.632606,-0.38062 0.94494,-0.56696 0.0026,-0.12864 0.0026,-0.25463 0,-0.37798 0.821594,-0.6326 1.640543,-1.26256 2.456845,-1.88988 0.632607,-0.6956 1.262567,-1.38856 1.889881,-2.07887 0.380622,-0.25463 0.758599,-0.50661 1.133929,-0.75595 1.829531,-2.08151 3.656416,-4.16038 5.480655,-6.23661 0.88459,-1.51455 1.766534,-3.02645 2.645833,-4.53571 1.388559,-1.45156 2.774471,-2.90046 4.157738,-4.34673 0.506614,-0.6956 1.010582,-1.38856 1.511905,-2.07887 2.585483,-2.77447 5.16832,-5.54629 7.748512,-8.31547 1.51455,-1.32557 3.026455,-2.64848 4.535714,-3.96875 1.451555,-1.57755 2.900463,-3.15245 4.346726,-4.7247 1.010583,-0.7586 2.018519,-1.51456 3.023813,-2.26786 1.01058,-1.07358 2.01852,-2.14451 3.02381,-3.2128 2.08151,-1.76653 4.16038,-3.530423 6.2366,-5.291666"
       d="m 50.247206,157.45591 c 0.448848,-0.41735 0.89938,-0.83626 1.186976,-1.14017 0.287597,-0.30392 0.413585,-0.4929 0.634577,-0.61767 0.220993,-0.12477 0.53598,-0.18777 1.16578,-0.66121 0.629801,-0.47344 1.574743,-1.35539 2.645826,-2.20559 1.071082,-0.85021 2.268008,-1.66916 3.086669,-2.33099 0.818661,-0.66182 1.259628,-1.16579 1.637932,-1.51179 0.378305,-0.34601 0.693286,-0.535 0.84922,-0.69288 0.155933,-0.15788 0.155933,-0.28387 0.566876,-0.66165 0.410943,-0.37779 1.229892,-1.00775 1.954134,-1.66946 0.724242,-0.66171 1.354203,-1.35467 1.858441,-1.82677 0.504237,-0.47211 0.882213,-0.72409 1.984348,-1.8899 1.102136,-1.16581 2.929021,-3.24468 4.283117,-5.04023 1.354095,-1.79555 2.236038,-3.30745 3.370349,-4.78765 1.134312,-1.4802 2.520219,-2.9291 3.464955,-4.00018 0.944735,-1.07107 1.448705,-1.76403 2.992295,-3.4963 1.543591,-1.73226 4.126426,-4.50408 6.17393,-6.55131 2.047504,-2.04724 3.559405,-3.37015 5.039674,-4.81921 1.480268,-1.44905 2.929177,-3.02395 4.157815,-4.18911 1.228638,-1.16517 2.236578,-1.92112 3.24431,-2.83481 1.00774,-0.9137 2.01568,-1.98463 3.55922,-3.40188 1.54354,-1.41726 3.62241,-3.18115 5.69843,-4.942626"
       id="path823"
       inkscape:connector-curvature="0" />
    <path
       style="fill:none;stroke:#000000;stroke-width:1;stroke-linecap:round;stroke-linejoin:miter;stroke-miterlimit:4;stroke-dasharray:none;stroke-opacity:1"
       d="m 48.094065,93.076673 c 0.59277,-1.218279 1.183959,-2.433308 1.651316,-2.969351 0.467358,-0.536044 0.811342,-0.396805 1.176916,0.194923 0.365574,0.591728 0.754491,1.63808 1.144032,2.686111"
       id="path1169"
       inkscape:connector-curvature="0"
       inkscape:path-effect="#path-effect1171"
       inkscape:original-d="m 48.094065,93.076673 c 0.593644,-1.217854 1.184832,-2.432883 1.773567,-3.645089 0.346435,0.136414 0.690418,0.275654 1.031945,0.417715 0.391374,1.043529 0.780291,2.089881 1.166752,3.139057" />
    <path
       style="fill:none;stroke:#000000;stroke-width:1;stroke-linecap:round;stroke-linejoin:miter;stroke-miterlimit:4;stroke-dasharray:none;stroke-opacity:1"
       d="m 119.40772,156.75038 c 1.25667,0.50634 2.50997,1.01133 3.0773,1.44016 0.56734,0.42883 0.45243,0.78169 -0.11235,1.18765 -0.56478,0.40596 -1.58145,0.86692 -2.59976,1.32862"
       id="path1169-6"
       inkscape:connector-curvature="0"
       inkscape:path-effect="#path-effect1171-3"
       inkscape:original-d="m 119.40772,156.75038 c 1.2563,0.50725 2.50961,1.01222 3.75992,1.51497 -0.11191,0.35512 -0.22682,0.70798 -0.34471,1.05858 -1.01368,0.46321 -2.03036,0.92416 -3.05002,1.38288" />
    <g
       aria-label="cost"
       style="font-style:normal;font-variant:normal;font-weight:normal;font-stretch:normal;font-size:10.58333302px;line-height:1.25;font-family:Chilanka;-inkscape-font-specification:Chilanka;letter-spacing:0px;word-spacing:0px;fill:#000000;fill-opacity:1;stroke:none;stroke-width:0.26458332"
       id="text1211">
      <path
         d="m 83.643773,163.96061 q 0.06718,0.12403 0.02584,0.25838 -0.03617,0.1292 -0.160196,0.19637 -0.124024,0.0672 -0.253215,0.0258 -0.98702,-0.29972 -1.762166,0.25322 -0.594279,0.41858 -0.8785,1.16272 -0.279052,0.74414 -0.09819,1.35392 0.180868,0.60461 0.749308,0.80615 0.749309,0.26355 2.010214,-0.19637 0.129191,-0.0517 0.253214,0.0103 0.129191,0.0568 0.1757,0.18603 0.04651,0.12919 -0.0155,0.25838 -0.05684,0.1292 -0.186035,0.1757 -1.483114,0.54261 -2.418457,0.21704 -0.935343,-0.33072 -1.198893,-1.20922 -0.258382,-0.88367 0.09819,-1.82935 0.356567,-0.94568 1.121379,-1.48828 1.043863,-0.73897 2.340942,-0.34106 0.134359,0.0362 0.19637,0.16019 z"
         style="font-style:normal;font-variant:normal;font-weight:normal;font-stretch:normal;font-family:Chilanka;-inkscape-font-specification:Chilanka;stroke-width:0.26458332"
         id="path1313" />
      <path
         d="m 86.563491,163.356 q 1.286744,0.0775 2.108399,1.27124 0.413411,0.59944 0.454752,1.44177 0.04134,0.84233 -0.403076,1.53479 -0.28422,0.44442 -0.738973,0.73381 -0.449585,0.28938 -0.966349,0.3824 -0.775146,0.1447 -1.503784,-0.14469 -0.72347,-0.29456 -1.16272,-0.97152 -0.552938,-0.85266 -0.408244,-1.88102 0.144694,-1.02836 0.862997,-1.68465 0.718302,-0.65629 1.632975,-0.69764 0.06201,-0.005 0.124023,0.0155 z m -0.118855,0.65629 q -0.656291,0.0413 -1.193726,0.5271 -0.532267,0.48576 -0.645955,1.27124 -0.108521,0.78548 0.263549,1.35909 0.372071,0.56844 0.909506,0.78548 0.537435,0.21704 1.023193,0.12402 0.930176,-0.17053 1.353922,-0.83715 0.33073,-0.5116 0.299724,-1.15239 -0.03101,-0.64079 -0.346232,-1.10071 -0.620117,-0.89917 -1.581299,-0.96118 -0.04134,0 -0.08268,-0.0155 z"
         style="font-style:normal;font-variant:normal;font-weight:normal;font-stretch:normal;font-family:Chilanka;-inkscape-font-specification:Chilanka;stroke-width:0.26458332"
         id="path1315" />
      <path
         d="m 94.490656,164.63757 q 0.0052,0.13953 -0.09302,0.24288 -0.09302,0.0982 -0.232544,0.10336 -0.139526,0 -0.237711,-0.093 -0.366903,-0.3514 -0.873332,-0.54777 -0.501261,-0.20154 -0.909505,-0.20671 -1.085205,-0.0103 -1.281576,0.57878 -0.149861,0.44958 0.248047,0.81132 0.397909,0.36173 1.452108,0.27905 0.816487,-0.0258 1.245402,0.19637 0.428914,0.22221 0.630452,0.63045 0.206706,0.40825 0.113688,0.81132 -0.170532,0.75448 -0.935343,1.10071 -0.589111,0.26872 -1.240234,0.21187 -1.229899,-0.11885 -2.036052,-0.82682 -0.103352,-0.0879 -0.113688,-0.22737 -0.0052,-0.1447 0.08268,-0.24805 0.09302,-0.10335 0.232543,-0.10852 0.139527,-0.0103 0.24288,0.0775 0.645955,0.56328 1.55546,0.65113 0.914673,0.0879 1.364258,-0.39791 0.325562,-0.35657 0.134359,-0.74931 -0.242879,-0.48576 -1.152385,-0.44442 -0.904337,0.0362 -1.317749,-0.0724 -0.408243,-0.11368 -0.72347,-0.3979 -0.315226,-0.28939 -0.434082,-0.69247 -0.118856,-0.40824 0.0155,-0.81649 0.134359,-0.40824 0.449585,-0.64595 0.537435,-0.40308 1.27124,-0.39274 1.472779,0.0155 2.439128,0.94051 0.09819,0.093 0.103353,0.23254 z"
         style="font-style:normal;font-variant:normal;font-weight:normal;font-stretch:normal;font-family:Chilanka;-inkscape-font-specification:Chilanka;stroke-width:0.26458332"
         id="path1317" />
      <path
         d="m 95.71022,164.21383 q -0.09819,-0.10336 -0.09819,-0.23771 0,-0.13953 0.09819,-0.23772 0.103353,-0.0982 0.237711,-0.0982 l 1.038697,0.005 q 0.0052,-0.11369 0.03101,-0.80099 0.03101,-0.69246 0.01034,-1.25057 -0.0052,-0.13952 0.09302,-0.23771 0.09819,-0.10335 0.232544,-0.10852 0.139527,-0.005 0.237712,0.093 0.103353,0.093 0.10852,0.23254 0.02067,0.57878 -0.01034,1.27641 -0.02584,0.69763 -0.03101,0.80098 l 0.780314,0.005 q 0.139527,0 0.237712,0.10335 0.09819,0.0982 0.09819,0.23772 0,0.13435 -0.103353,0.23254 -0.09819,0.0982 -0.232544,0.0982 -0.403076,0 -0.800984,-0.005 -0.07235,2.58899 0.242879,3.50883 0.113688,0.34106 0.242879,0.41341 0.134359,0.0672 0.1757,0.20154 0.04134,0.13436 -0.02584,0.25838 -0.06201,0.11885 -0.196371,0.1602 -0.134359,0.0413 -0.258382,-0.0207 -0.661458,-0.35656 -0.806152,-1.9482 -0.08785,-1.03869 -0.04651,-2.57865 -0.511597,0 -1.018026,-0.005 -0.139526,0 -0.237711,-0.0982 z"
         style="font-style:normal;font-variant:normal;font-weight:normal;font-stretch:normal;font-family:Chilanka;-inkscape-font-specification:Chilanka;stroke-width:0.26458332"
         id="path1319" />
    </g>
    <g
       aria-label="revenue"
       transform="scale(-1)"
       style="font-style:normal;font-weight:normal;font-size:10.58333302px;line-height:1.25;font-family:sans-serif;letter-spacing:0px;word-spacing:0px;fill:#000000;fill-opacity:1;stroke:none;stroke-width:0.26458332"
       id="text1215">
      <path
         d="m -46.921753,-143.61502 q 0.103353,-0.0207 0.222209,0.0155 0.124023,0.0413 0.253214,0.0517 0.134359,0.0103 0.707967,0.062 0.573609,0.0517 1.715658,0.0207 1.147217,-0.0258 1.390096,-0.093 0.248047,-0.062 0.366902,0.0103 0.124024,0.0724 0.160197,0.20671 0.03617,0.13436 -0.03617,0.25321 -0.07235,0.11886 -0.206706,0.15503 -0.418579,0.10852 -1.317749,0.13436 1.477946,0.74931 1.643311,2.04122 0.0155,0.13436 -0.07235,0.24288 -0.08268,0.11369 -0.222209,0.12919 -0.134359,0.0207 -0.248047,-0.0672 -0.10852,-0.0827 -0.124023,-0.22221 -0.165365,-1.31258 -2.351278,-1.9327 -0.521932,-0.14986 -1.09554,-0.22737 -0.397909,-0.0207 -0.558106,-0.0362 -0.155029,-0.0155 -0.217041,0.0103 -0.06201,0.031 -0.165364,-0.0672 -0.09819,-0.0982 -0.129191,-0.1757 -0.08785,-0.22738 0.04651,-0.35657 0.139527,-0.12919 0.237712,-0.15503 z"
         style="font-style:normal;font-variant:normal;font-weight:normal;font-stretch:normal;font-family:Chilanka;-inkscape-font-specification:Chilanka;writing-mode:tb-rl;direction:ltr;text-orientation:sideways;stroke-width:0.26458332"
         id="path1298" />
      <path
         d="m -45.448975,-138.61274 q -0.263549,0.0724 -0.490926,0.23771 -0.594279,0.41342 -0.65629,1.30742 -0.05684,0.89917 0.573608,2.16524 0.05684,0.12402 0.01033,0.25838 -0.04134,0.13436 -0.165364,0.19121 -0.124024,0.062 -0.258382,0.0155 -0.129192,-0.0413 -0.191203,-0.16537 -0.707967,-1.43143 -0.630453,-2.57865 0.07751,-1.14205 0.930176,-1.74666 0.728638,-0.5116 1.700155,-0.39791 0.971516,0.11369 1.679484,0.82165 0.909505,0.91468 0.909505,2.39262 0,0.74931 -0.361735,1.21957 -0.423747,0.54777 -1.100708,0.47542 -0.676961,-0.0672 -1.193726,-0.83199 -0.764811,-1.12655 -0.764811,-3.28146 0,-0.0413 0.01034,-0.0827 z m 0.630453,-0.0568 q 0.03101,0.0672 0.03101,0.13952 0,1.94821 0.651123,2.90939 0.341064,0.50126 0.728637,0.5426 0.279053,0.0258 0.485759,-0.24805 0.211873,-0.26871 0.211873,-0.78031 0,-1.20923 -0.713135,-1.92236 -0.578776,-0.57878 -1.395263,-0.64079 z"
         style="font-style:normal;font-variant:normal;font-weight:normal;font-stretch:normal;font-family:Chilanka;-inkscape-font-specification:Chilanka;writing-mode:tb-rl;direction:ltr;text-orientation:sideways;stroke-width:0.26458332"
         id="path1300" />
      <path
         d="m -42.022827,-133.30557 q 0.113688,0.0878 0.129191,0.22221 0.02067,0.13436 -0.06718,0.24805 -0.08268,0.11369 -0.217041,0.12919 -3.891235,0.5426 -4.345987,1.10587 0.434082,0.60979 4.320149,1.57097 0.134359,0.031 0.206706,0.14986 0.07235,0.12402 0.03617,0.25838 -0.03101,0.13436 -0.149861,0.20671 -0.118856,0.0723 -0.253215,0.0413 -3.038574,-0.75448 -4.072102,-1.32809 -1.028361,-0.56844 -0.697632,-1.19889 0.258382,-0.49092 1.472778,-0.82682 1.214396,-0.34107 3.389974,-0.64079 0.134359,-0.0207 0.248047,0.062 z"
         style="font-style:normal;font-variant:normal;font-weight:normal;font-stretch:normal;font-family:Chilanka;-inkscape-font-specification:Chilanka;writing-mode:tb-rl;direction:ltr;text-orientation:sideways;stroke-width:0.26458332"
         id="path1302" />
      <path
         d="m -45.448975,-127.60049 q -0.263549,0.0724 -0.490926,0.23771 -0.594279,0.41341 -0.65629,1.30742 -0.05684,0.89917 0.573608,2.16524 0.05684,0.12402 0.01033,0.25838 -0.04134,0.13436 -0.165364,0.1912 -0.124024,0.062 -0.258382,0.0155 -0.129192,-0.0413 -0.191203,-0.16537 -0.707967,-1.43144 -0.630453,-2.57865 0.07751,-1.14205 0.930176,-1.74667 0.728638,-0.51159 1.700155,-0.3979 0.971516,0.11368 1.679484,0.82165 0.909505,0.91467 0.909505,2.39262 0,0.74931 -0.361735,1.21956 -0.423747,0.54777 -1.100708,0.47543 -0.676961,-0.0672 -1.193726,-0.83199 -0.764811,-1.12655 -0.764811,-3.28146 0,-0.0413 0.01034,-0.0827 z m 0.630453,-0.0568 q 0.03101,0.0672 0.03101,0.13952 0,1.9482 0.651123,2.90939 0.341064,0.50126 0.728637,0.5426 0.279053,0.0258 0.485759,-0.24805 0.211873,-0.26872 0.211873,-0.78031 0,-1.20923 -0.713135,-1.92237 -0.578776,-0.57877 -1.395263,-0.64078 z"
         style="font-style:normal;font-variant:normal;font-weight:normal;font-stretch:normal;font-family:Chilanka;-inkscape-font-specification:Chilanka;writing-mode:tb-rl;direction:ltr;text-orientation:sideways;stroke-width:0.26458332"
         id="path1304" />
      <path
         d="m -42.183024,-122.3605 q 0.139526,0.0155 0.227376,0.11886 0.08785,0.10335 0.07751,0.24288 -0.01034,0.14469 -0.118856,0.23254 -0.449585,0.37207 -1.384928,0.5426 1.266072,0.69247 1.431437,1.81384 0.129191,0.93018 -0.434082,1.67432 -0.558106,0.74931 -1.576131,0.96635 -1.446941,0.29972 -3.121257,-0.66146 -0.118856,-0.0672 -0.155029,-0.2067 -0.03617,-0.13436 0.03101,-0.25322 0.06718,-0.11885 0.201538,-0.15503 0.139526,-0.0362 0.258382,0.031 1.452108,0.83199 2.645833,0.58394 0.769979,-0.1602 1.173055,-0.69763 0.403076,-0.53227 0.310059,-1.18339 -0.09302,-0.64596 -0.769979,-1.12138 -0.671794,-0.47542 -1.679484,-0.65112 -0.81132,0.0103 -1.632975,-0.0775 l -0.201538,-0.0207 q -0.134359,-0.0103 -0.222209,-0.11885 -0.08785,-0.10852 -0.07751,-0.24288 0.0155,-0.12919 0.113688,-0.21704 0.103353,-0.0827 0.211874,-0.0879 1.023193,-0.0413 1.855184,0.093 1.18339,-0.0207 1.777669,-0.18603 0.599447,-0.1602 0.759643,-0.29456 0.160197,-0.13436 0.299724,-0.12402 z"
         style="font-style:normal;font-variant:normal;font-weight:normal;font-stretch:normal;font-family:Chilanka;-inkscape-font-specification:Chilanka;writing-mode:tb-rl;direction:ltr;text-orientation:sideways;stroke-width:0.26458332"
         id="path1306" />
      <path
         d="m -42.374227,-111.97354 q 0.258382,0.0672 0.28422,0.29973 0.01034,0.13952 -0.07751,0.24804 -0.08785,0.10852 -0.222209,0.11886 -1.105876,0.11369 -2.030884,-0.0465 -1.788004,0.031 -2.320271,0.32039 -0.05168,0.0258 -0.06718,0.0413 -0.06718,0.12402 -0.201538,0.16019 -0.129191,0.0413 -0.248047,-0.0207 -0.124023,-0.062 -0.165364,-0.19637 -0.04134,-0.13436 0.05168,-0.31006 0.201538,-0.38757 1.353923,-0.5581 -0.63562,-0.37207 -0.981853,-0.91984 -0.490926,-0.76481 -0.211873,-1.51412 0.279053,-0.74414 1.224731,-1.09037 1.390096,-0.5116 3.762045,0.12402 0.134358,0.0362 0.201538,0.15503 0.07235,0.12402 0.03617,0.25321 -0.03617,0.13436 -0.160197,0.20671 -0.118856,0.0724 -0.253214,0.0362 -2.118734,-0.58911 -3.358968,-0.14469 -0.651123,0.23254 -0.816488,0.68213 -0.165364,0.44958 0.139527,0.93017 0.563273,0.88884 2.072224,1.17306 0.63562,-0.0103 1.395264,0.0155 z"
         style="font-style:normal;font-variant:normal;font-weight:normal;font-stretch:normal;font-family:Chilanka;-inkscape-font-specification:Chilanka;writing-mode:tb-rl;direction:ltr;text-orientation:sideways;stroke-width:0.26458332"
         id="path1308" />
      <path
         d="m -45.448975,-109.17784 q -0.263549,0.0723 -0.490926,0.23771 -0.594279,0.41341 -0.65629,1.30741 -0.05684,0.89917 0.573608,2.16524 0.05684,0.12403 0.01033,0.25839 -0.04134,0.13435 -0.165364,0.1912 -0.124024,0.062 -0.258382,0.0155 -0.129192,-0.0413 -0.191203,-0.16536 -0.707967,-1.43144 -0.630453,-2.57866 0.07751,-1.14205 0.930176,-1.74666 0.728638,-0.5116 1.700155,-0.39791 0.971516,0.11369 1.679484,0.82166 0.909505,0.91467 0.909505,2.39262 0,0.7493 -0.361735,1.21956 -0.423747,0.54777 -1.100708,0.47542 -0.676961,-0.0672 -1.193726,-0.83199 -0.764811,-1.12654 -0.764811,-3.28145 0,-0.0413 0.01034,-0.0827 z m 0.630453,-0.0568 q 0.03101,0.0672 0.03101,0.13953 0,1.9482 0.651123,2.90938 0.341064,0.50126 0.728637,0.5426 0.279053,0.0258 0.485759,-0.24804 0.211873,-0.26872 0.211873,-0.78032 0,-1.20923 -0.713135,-1.92236 -0.578776,-0.57878 -1.395263,-0.64079 z"
         style="font-style:normal;font-variant:normal;font-weight:normal;font-stretch:normal;font-family:Chilanka;-inkscape-font-specification:Chilanka;writing-mode:tb-rl;direction:ltr;text-orientation:sideways;stroke-width:0.26458332"
         id="path1310" />
    </g>
    <text
       xml:space="preserve"
       style="font-style:normal;font-variant:normal;font-weight:normal;font-stretch:normal;font-size:10.58333302px;line-height:1.25;font-family:Chilanka;-inkscape-font-specification:Chilanka;letter-spacing:0px;word-spacing:0px;fill:#000000;fill-opacity:1;stroke:none;stroke-width:0.26458332"
       x="59.720238"
       y="131.25745"
       id="text1219"><tspan
         sodipodi:role="line"
         id="tspan1217"
         x="59.720238"
         y="131.25745"
         style="stroke-width:0.26458332">OL</tspan></text>
    <text
       xml:space="preserve"
       style="font-style:normal;font-variant:normal;font-weight:normal;font-stretch:normal;font-size:10.58333302px;line-height:1.25;font-family:Chilanka;-inkscape-font-specification:Chilanka;letter-spacing:0px;word-spacing:0px;fill:#000000;fill-opacity:1;stroke:none;stroke-width:0.26458332"
       x="100.35267"
       y="119.3512"
       id="text1223"><tspan
         sodipodi:role="line"
         id="tspan1221"
         x="100.35267"
         y="119.3512"
         style="stroke-width:0.26458332">CL</tspan></text>
  </g>
  <g
     inkscape:groupmode="layer"
     id="layer2"
     inkscape:label="arrow"
     style="display:none">
    <g
       transform="translate(-40.157022,-89.274322)"
       id="g1273">
      <path
         sodipodi:nodetypes="czcc"
         inkscape:original-d="m 98.876964,114.0154 c 0,0 -9.412237,-1.59863 -14.118753,-2.39755 -2.77156,0.25172 -5.548012,0.50412 -8.315475,0.75595 -1.698247,0.50132 -3.399142,1.00529 -5.10268,1.51191"
         inkscape:path-effect="#path-effect1246"
         inkscape:connector-curvature="0"
         id="path1244"
         d="m 98.876964,114.0154 c -4.706251,-0.79918 -9.412288,-1.59833 -13.15129,-1.87196 -3.739001,-0.27363 -6.515453,-0.0212 -8.748065,0.35608 -2.232612,0.37732 -3.933507,0.88129 -5.637553,1.38619"
         style="fill:none;stroke:#000000;stroke-width:1;stroke-linecap:round;stroke-linejoin:miter;stroke-miterlimit:4;stroke-dasharray:none;stroke-opacity:1" />
      <path
         style="fill:none;stroke:#000000;stroke-width:1;stroke-linecap:round;stroke-linejoin:miter;stroke-miterlimit:4;stroke-dasharray:none;stroke-opacity:1"
         d="m 74.938872,114.96089 c -1.341839,-0.18723 -2.68008,-0.37397 -3.334316,-0.65278 -0.654235,-0.27881 -0.628111,-0.64901 -0.178322,-1.17953 0.449789,-0.53052 1.324742,-1.22374 2.201119,-1.91808"
         id="path1248"
         inkscape:connector-curvature="0"
         inkscape:path-effect="#path-effect1250"
         inkscape:original-d="m 74.938872,114.96089 c -1.341697,-0.18825 -2.679993,-0.37459 -4.01476,-0.5602 0.02268,-0.37164 0.04877,-0.74184 0.07837,-1.11054 0.871509,-0.69466 1.746473,-1.38786 2.624871,-2.07965" />
    </g>
  </g>
</svg>
