<?xml version="1.0" encoding="UTF-8" standalone="no"?>
<!-- Created with Inkscape (http://www.inkscape.org/) -->

<svg
   xmlns:dc="http://purl.org/dc/elements/1.1/"
   xmlns:cc="http://creativecommons.org/ns#"
   xmlns:rdf="http://www.w3.org/1999/02/22-rdf-syntax-ns#"
   xmlns:svg="http://www.w3.org/2000/svg"
   xmlns="http://www.w3.org/2000/svg"
   xmlns:sodipodi="http://sodipodi.sourceforge.net/DTD/sodipodi-0.dtd"
   xmlns:inkscape="http://www.inkscape.org/namespaces/inkscape"
   version="1.1"
   id="svg1761"
   xml:space="preserve"
   width="50mm"
   height="55mm"
   viewBox="0 0 188.97638 207.87401"
   sodipodi:docname="crane_schematic2.svg"
   inkscape:version="0.92.3 (2405546, 2018-03-11)"><metadata
     id="metadata1767"><rdf:RDF><cc:Work
         rdf:about=""><dc:format>image/svg+xml</dc:format><dc:type
           rdf:resource="http://purl.org/dc/dcmitype/StillImage" /><dc:title></dc:title></cc:Work></rdf:RDF></metadata><defs
     id="defs1765" /><sodipodi:namedview
     pagecolor="#ffffff"
     bordercolor="#666666"
     borderopacity="1"
     objecttolerance="10"
     gridtolerance="10"
     guidetolerance="10"
     inkscape:pageopacity="0"
     inkscape:pageshadow="2"
     inkscape:window-width="1920"
     inkscape:window-height="960"
     id="namedview1763"
     showgrid="false"
     inkscape:zoom="3.192661"
     inkscape:cx="12.775503"
     inkscape:cy="105.20022"
     inkscape:window-x="0"
     inkscape:window-y="27"
     inkscape:window-maximized="1"
     inkscape:current-layer="g1769"
     units="mm" /><g
     id="g1769"
     inkscape:groupmode="layer"
     inkscape:label="crane_schematic2"
     transform="matrix(1.3333333,0,0,-1.3333333,97.310664,56.067338)"><g
       id="g1773" /><g
       id="g1775"
       transform="translate(0.00895868,0.2398667)"><g
         id="g1777"><path
           inkscape:connector-curvature="0"
           id="path1779"
           style="fill:none;stroke:#000000;stroke-width:0.3985;stroke-linecap:butt;stroke-linejoin:miter;stroke-miterlimit:10;stroke-dasharray:none;stroke-opacity:1"
           d="M -51.02411,-21.26009 V 21.26009 H 51.02411 v -42.52018 z" /><g
           transform="rotate(180,0.14943,14.881995)"
           id="g1783"><g
             id="g1785" /></g><g
           transform="translate(20.8018,29.76399)"
           id="g1789"><g
             id="g1791" /></g><g
           id="g1795"><g
             transform="translate(5.989,34.778)"
             id="g1797"><g
               id="g1799"><g
                 transform="translate(-78.972,-148.633)"
                 id="g1801">

<g
   transform="translate(78.972,148.633)"
   id="g1811" /></g></g><g
               transform="translate(-5.989,-34.778)"
               id="g1813" /></g></g><g
           id="g1815"><path
             inkscape:connector-curvature="0"
             id="path1817"
             style="fill:#808080;fill-opacity:1;fill-rule:nonzero;stroke:#000000;stroke-width:0.3985;stroke-linecap:butt;stroke-linejoin:miter;stroke-miterlimit:10;stroke-dasharray:none;stroke-opacity:1"
             d="m -17.00781,-21.26009 c 0,7.04514 -5.71105,12.75619 -12.75618,12.75619 -7.04514,0 -12.75618,-5.71105 -12.75618,-12.75619 0,-7.04511 5.71104,-12.75618 12.75618,-12.75618 7.04513,0 12.75618,5.71107 12.75618,12.75618 z" /></g><g
           id="g1819"><path
             inkscape:connector-curvature="0"
             id="path1821"
             style="fill:#808080;fill-opacity:1;fill-rule:nonzero;stroke:#000000;stroke-width:0.3985;stroke-linecap:butt;stroke-linejoin:miter;stroke-miterlimit:10;stroke-dasharray:none;stroke-opacity:1"
             d="m 42.52017,-21.26009 c 0,7.04514 -5.71104,12.75619 -12.75618,12.75619 -7.04513,0 -12.75618,-5.71105 -12.75618,-12.75619 0,-7.04511 5.71105,-12.75618 12.75618,-12.75618 7.04514,0 12.75618,5.71107 12.75618,12.75618 z" /></g><path
           inkscape:connector-curvature="0"
           id="path1823"
           style="fill:none;stroke:#000000;stroke-width:0.3985;stroke-linecap:butt;stroke-linejoin:miter;stroke-miterlimit:10;stroke-dasharray:none;stroke-opacity:1"
           d="M -68.03258,-34.01628 H 68.03258" /><g
           id="g1825"><path
             inkscape:connector-curvature="0"
             id="path1827"
             style="fill:#bfbfbf;fill-opacity:1;fill-rule:nonzero;stroke:#000000;stroke-width:0.3985;stroke-linecap:butt;stroke-linejoin:miter;stroke-miterlimit:10;stroke-dasharray:none;stroke-opacity:1"
             d="M 12.75616,0 C 12.75616,7.04512 7.04512,12.75616 0,12.75616 -7.04512,12.75616 -12.75616,7.04512 -12.75616,0 c 0,-7.04512 5.71104,-12.75616 12.75616,-12.75616 7.04512,0 12.75616,5.71104 12.75616,12.75616 z" /></g><path
           inkscape:connector-curvature="0"
           id="path1829"
           style="fill:none;stroke:#000000;stroke-width:0.3985;stroke-linecap:butt;stroke-linejoin:miter;stroke-miterlimit:10;stroke-dasharray:none;stroke-opacity:1"
           d="M 5.81885,-6.21841 C 7.79327,-4.56163 8.90224,-1.515 8.37476,1.47664 8.02765,3.44533 6.99759,5.22934 5.81885,6.2184" /><g
           transform="matrix(-0.76949,-0.64568,0.64568,-0.76949,5.81886,-6.2184)"
           id="g1831"><g
             id="g1833"><path
               inkscape:connector-curvature="0"
               id="path1835"
               style="fill:none;stroke:#000000;stroke-width:0.31878999;stroke-linecap:round;stroke-linejoin:round;stroke-miterlimit:10;stroke-dasharray:none;stroke-opacity:1"
               d="M -1.19551,1.59401 C -1.09587,0.99626 0,0.09961 0.29886,0 0,-0.09961 -1.09587,-0.99626 -1.19551,-1.59401" /></g></g><g
           transform="matrix(-0.76949,0.6457,-0.6457,-0.76949,5.81886,6.2184)"
           id="g1837"><g
             id="g1839"><path
               inkscape:connector-curvature="0"
               id="path1841"
               style="fill:none;stroke:#000000;stroke-width:0.31878999;stroke-linecap:round;stroke-linejoin:round;stroke-miterlimit:10;stroke-dasharray:none;stroke-opacity:1"
               d="M -1.19551,1.59401 C -1.09587,0.99626 0,0.09961 0.29886,0 0,-0.09961 -1.09587,-0.99626 -1.19551,-1.59401" /></g></g><path
           inkscape:connector-curvature="0"
           id="path1843"
           style="fill:none;stroke:#000000;stroke-width:0.3985;stroke-linecap:butt;stroke-linejoin:miter;stroke-miterlimit:10;stroke-dasharray:none;stroke-opacity:1"
           d="m -72.28421,0 h 20.80182" /><g
           transform="translate(-51.48239)"
           id="g1845"><g
             id="g1847"><path
               inkscape:connector-curvature="0"
               id="path1849"
               style="fill:none;stroke:#000000;stroke-width:0.31878999;stroke-linecap:round;stroke-linejoin:round;stroke-miterlimit:10;stroke-dasharray:none;stroke-opacity:1"
               d="M -1.19551,1.59401 C -1.09587,0.99626 0,0.09961 0.29886,0 0,-0.09961 -1.09587,-0.99626 -1.19551,-1.59401" /></g></g><g
           id="g1851"><g
             transform="translate(-64.249,3.635)"
             id="g1853"><g
               id="g1855"><g
                 transform="translate(-8.734,-117.49)"
                 id="g1857">
<g
   transform="translate(8.734,117.49)"
   id="g1863" /></g></g><g
               transform="translate(64.249,-3.635)"
               id="g1865" /></g></g><path
           inkscape:connector-curvature="0"
           id="path1867"
           style="fill:none;stroke:#000000;stroke-width:0.3985;stroke-linecap:butt;stroke-linejoin:miter;stroke-miterlimit:10;stroke-dasharray:none;stroke-opacity:1"
           d="M -11.98694,-4.36293 21.26009,-85.04042" /><g
           id="g1869"><g
             transform="translate(10.913,-53.167)"
             id="g1871"><g
               id="g1873"><g
                 transform="translate(-83.896,-60.688)"
                 id="g1875">
<g
   transform="translate(83.896,60.688)"
   id="g1881" /></g></g><g
               transform="translate(-10.913,53.167)"
               id="g1883" /></g></g><g
           id="g1885" /><g
           transform="matrix(0.94089,0.34245,-0.34245,0.94089,4.26419,-48.10414)"
           id="g1891"><g
             id="g1893" /></g><g
           id="g1897"><g
             transform="translate(-6.148,-60.692)"
             id="g1899"><g
               id="g1901"><g
                 transform="translate(-66.835,-53.163)"
                 id="g1903">
<g
   transform="translate(66.835,53.163)"
   id="g1909" /></g></g><g
               transform="translate(6.148,60.692)"
               id="g1911" /></g></g><g
           id="g1913"><path
             inkscape:connector-curvature="0"
             id="path1915"
             style="fill:#404040;fill-opacity:1;fill-rule:nonzero;stroke:#000000;stroke-width:0.3985;stroke-linecap:butt;stroke-linejoin:miter;stroke-miterlimit:10;stroke-dasharray:none;stroke-opacity:1"
             d="m 29.76399,-85.04042 c 0,4.69664 -3.80728,8.50391 -8.5039,8.50391 -4.69664,0 -8.50393,-3.80727 -8.50393,-8.50391 0,-4.69664 3.80729,-8.50391 8.50393,-8.50391 4.69662,0 8.5039,3.80727 8.5039,8.50391 z" /></g><g
           transform="rotate(180,10.77947,-51.024125)"
           id="g1919"><g
             id="g1921" /></g><g
           transform="translate(42.06192,-102.04825)"
           id="g1925"><g
             id="g1927" /></g><g
           id="g1931"><g
             transform="translate(29.224,-109.92)"
             id="g1933"><g
               id="g1935"><g
                 transform="translate(-102.207,-3.935)"
                 id="g1937">
<g
   transform="translate(102.207,3.935)"
   id="g1943" /></g></g><g
               transform="translate(-29.224,109.92)"
               id="g1945" /></g></g></g></g></g></svg>