<?xml version="1.0" encoding="UTF-8" standalone="no"?>
<!-- Created with Inkscape (http://www.inkscape.org/) -->

<svg
   xmlns:dc="http://purl.org/dc/elements/1.1/"
   xmlns:cc="http://creativecommons.org/ns#"
   xmlns:rdf="http://www.w3.org/1999/02/22-rdf-syntax-ns#"
   xmlns:svg="http://www.w3.org/2000/svg"
   xmlns="http://www.w3.org/2000/svg"
   xmlns:sodipodi="http://sodipodi.sourceforge.net/DTD/sodipodi-0.dtd"
   xmlns:inkscape="http://www.inkscape.org/namespaces/inkscape"
   width="22.703079mm"
   height="10.556001mm"
   viewBox="0 0 22.703079 10.556001"
   version="1.1"
   id="svg7108"
   inkscape:version="0.92.3 (2405546, 2018-03-11)"
   sodipodi:docname="meco_CSI.svg">
  <defs
     id="defs7102">
    <filter
       style="color-interpolation-filters:sRGB"
       inkscape:label="Film Grain"
       id="filter4826"
       inkscape:menu="Image Effects"
       inkscape:menu-tooltip="Adds a small scale graininess">
      <feFlood
         flood-opacity="1"
         flood-color="rgb(0,0,0)"
         result="flood"
         id="feFlood4816" />
      <feComposite
         in="flood"
         in2="SourceGraphic"
         operator="in"
         result="composite1"
         id="feComposite4818" />
      <feGaussianBlur
         in="composite1"
         stdDeviation="66.8"
         result="blur"
         id="feGaussianBlur4820" />
      <feOffset
         dx="6"
         dy="6"
         result="offset"
         id="feOffset4822" />
      <feComposite
         in="SourceGraphic"
         in2="offset"
         operator="over"
         result="fbSourceGraphic"
         id="feComposite4824" />
      <feColorMatrix
         result="fbSourceGraphicAlpha"
         in="fbSourceGraphic"
         values="0 0 0 -1 0 0 0 0 -1 0 0 0 0 -1 0 0 0 0 1 0"
         id="feColorMatrix4828" />
      <feFlood
         id="feFlood4830"
         flood-opacity="1"
         flood-color="rgb(0,0,0)"
         result="flood"
         in="fbSourceGraphic" />
      <feComposite
         in2="fbSourceGraphic"
         id="feComposite4832"
         in="flood"
         operator="in"
         result="composite1" />
      <feGaussianBlur
         id="feGaussianBlur4834"
         in="composite1"
         stdDeviation="66.8"
         result="blur" />
      <feOffset
         id="feOffset4836"
         dx="6"
         dy="6"
         result="offset" />
      <feComposite
         in2="offset"
         id="feComposite4838"
         in="fbSourceGraphic"
         operator="over"
         result="fbSourceGraphic" />
      <feColorMatrix
         result="fbSourceGraphicAlpha"
         in="fbSourceGraphic"
         values="0 0 0 -1 0 0 0 0 -1 0 0 0 0 -1 0 0 0 0 1 0"
         id="feColorMatrix5473" />
      <feTurbulence
         id="feTurbulence5475"
         type="fractalNoise"
         numOctaves="3"
         baseFrequency="1"
         seed="0"
         result="result0" />
      <feColorMatrix
         id="feColorMatrix5477"
         result="result4"
         values="0"
         type="saturate" />
      <feComposite
         in2="result4"
         id="feComposite5479"
         in="fbSourceGraphic"
         operator="arithmetic"
         k1="1.25"
         k2="0.5"
         k3="0.5"
         result="result2"
         k4="0" />
      <feBlend
         in2="fbSourceGraphic"
         id="feBlend5481"
         result="result5"
         mode="normal"
         in="result2" />
      <feComposite
         in2="fbSourceGraphic"
         id="feComposite5483"
         in="result5"
         operator="in"
         result="result3" />
    </filter>
    <filter
       inkscape:label="Film Grain"
       inkscape:menu="Image Effects"
       inkscape:menu-tooltip="Adds a small scale graininess"
       style="color-interpolation-filters:sRGB"
       id="filter5495">
      <feTurbulence
         type="fractalNoise"
         numOctaves="3"
         baseFrequency="1"
         seed="0"
         result="result0"
         id="feTurbulence5485" />
      <feColorMatrix
         result="result4"
         values="0"
         type="saturate"
         id="feColorMatrix5487" />
      <feComposite
         in="SourceGraphic"
         in2="result4"
         operator="arithmetic"
         k1="1.25"
         k2="0.5"
         k3="0.5"
         result="result2"
         id="feComposite5489"
         k4="0" />
      <feBlend
         result="result5"
         mode="normal"
         in="result2"
         in2="SourceGraphic"
         id="feBlend5491" />
      <feComposite
         in="result5"
         in2="SourceGraphic"
         operator="in"
         result="result3"
         id="feComposite5493" />
    </filter>
  </defs>
  <sodipodi:namedview
     id="base"
     pagecolor="#ffffff"
     bordercolor="#666666"
     borderopacity="1.0"
     inkscape:pageopacity="0.0"
     inkscape:pageshadow="2"
     inkscape:zoom="3.959798"
     inkscape:cx="38.73239"
     inkscape:cy="-12.17479"
     inkscape:document-units="mm"
     inkscape:current-layer="layer1"
     showgrid="false"
     inkscape:window-width="1920"
     inkscape:window-height="960"
     inkscape:window-x="0"
     inkscape:window-y="27"
     inkscape:window-maximized="1"
     inkscape:snap-global="false"
     fit-margin-top="0"
     fit-margin-left="0"
     fit-margin-right="0"
     fit-margin-bottom="0" />
  <metadata
     id="metadata7105">
    <rdf:RDF>
      <cc:Work
         rdf:about="">
        <dc:format>image/svg+xml</dc:format>
        <dc:type
           rdf:resource="http://purl.org/dc/dcmitype/StillImage" />
        <dc:title></dc:title>
      </cc:Work>
    </rdf:RDF>
  </metadata>
  <g
     inkscape:label="Layer 1"
     inkscape:groupmode="layer"
     id="layer1"
     transform="translate(-106.45174,-27.150721)">
    <g
       id="g5467"
       style="font-style:normal;font-variant:normal;font-weight:normal;font-stretch:normal;font-size:6.24021101px;line-height:1.25;font-family:sans-serif;-inkscape-font-specification:sans-serif;letter-spacing:0px;word-spacing:0px;fill:#000000;fill-opacity:1;stroke:none;stroke-width:0.15600526;filter:url(#filter4826)"
       transform="matrix(1.486379,0,0,0.67277592,0.09449405,0.09449405)"
       aria-label="MECO">
      <path
         inkscape:connector-curvature="0"
         id="path5459"
         style="font-style:normal;font-variant:normal;font-weight:normal;font-stretch:normal;font-family:'CSI Cream Source Inside';-inkscape-font-specification:'CSI Cream Source Inside';fill:#000000;fill-opacity:1;stroke-width:0.15600526"
         d="m 73.178216,40.825498 h 0.438765 l 0.195007,0.02438 0.134067,0.0975 0.03656,0.170631 0.08532,0.146255 0.02438,0.182818 0.07313,0.146255 0.158443,0.511893 0.03656,0.182818 0.134067,0.243759 0.03656,-0.231571 0.06094,-0.146255 0.0975,-0.341261 0.07313,-0.158443 0.02438,-0.182819 0.07313,-0.146255 0.03656,-0.182818 q 0.0091,-0.07922 0.07313,-0.146255 l 0.0975,-0.134067 0.182818,-0.03656 h 0.438765 l 0.195007,0.02438 0.109691,0.109691 0.04875,0.170631 v 3.729501 l -0.03656,0.170631 -0.109691,0.121879 -0.195007,0.0975 -0.268134,-0.0975 -0.06094,-0.158443 -0.02437,-3.046978 -0.03656,0.170631 q -0.0091,0.07922 -0.07313,0.146255 l -0.0975,0.341261 -0.07313,0.146255 -0.02438,0.195007 -0.08532,0.134067 -0.02437,0.195006 -0.109692,0.109692 -0.134067,0.08532 -0.426577,0.01219 -0.158442,-0.06094 -0.08532,-0.134067 -0.06094,-0.158443 -0.08532,-0.353449 -0.07313,-0.146255 -0.03656,-0.182819 -0.08532,-0.134067 -0.03656,-0.280322 -0.03656,0.07313 -0.01219,2.839783 -0.207194,0.231571 -0.146255,0.04875 -0.170631,-0.04875 q -0.07617,-0.02742 -0.121879,-0.109692 l -0.06094,-0.377825 v -3.497931 l 0.03656,-0.182818 0.08532,-0.146255 z" />
      <path
         inkscape:connector-curvature="0"
         id="path5461"
         style="font-style:normal;font-variant:normal;font-weight:normal;font-stretch:normal;font-family:'CSI Cream Source Inside';-inkscape-font-specification:'CSI Cream Source Inside';fill:#000000;fill-opacity:1;stroke-width:0.15600526"
         d="m 76.456765,40.898625 h 1.876938 l 0.280322,0.03656 0.06094,0.0975 0.07313,0.07313 0.01219,0.158443 -0.03656,0.121879 -0.146255,0.158443 -0.134067,0.03656 h -1.243167 l -0.121879,0.02437 -0.02438,0.134067 v 0.780027 l 0.03656,0.109691 h 0.780026 l 0.280322,0.03656 0.08532,0.07313 0.121879,0.195007 0.01219,0.06094 -0.134067,0.255946 -0.121879,0.04875 -0.914094,0.01219 -0.134067,0.02438 -0.01219,1.218791 0.134067,0.02438 1.547865,0.02438 0.08532,0.06094 0.07313,0.08532 0.03656,0.121879 0.03656,0.04875 -0.03656,0.03656 -0.03656,0.121879 -0.06094,0.0975 -0.0975,0.04875 -0.146255,0.02438 -2.169448,-0.01219 -0.07313,-0.08532 V 41.10582 l 0.03656,-0.134067 z" />
      <path
         inkscape:connector-curvature="0"
         id="path5463"
         style="font-style:normal;font-variant:normal;font-weight:normal;font-stretch:normal;font-family:'CSI Cream Source Inside';-inkscape-font-specification:'CSI Cream Source Inside';fill:#000000;fill-opacity:1;stroke-width:0.15600526"
         d="m 80.61589,40.801122 0.353449,0.01219 0.58502,0.121879 0.475328,0.231571 0.0975,0.08532 0.109691,0.06094 0.02438,0.158443 -0.01219,0.524081 -0.109691,0.255946 -0.121879,0.04875 -0.170631,0.01219 -0.134067,-0.03656 -0.158443,-0.207195 -0.02438,-0.146255 v -0.182819 l -0.182819,-0.158442 -0.633771,-0.06094 -0.499704,0.04875 -0.219383,0.134067 -0.01219,2.644777 0.0975,0.07313 0.146254,0.03656 0.0975,0.07313 0.329073,0.02438 0.511893,-0.02438 0.109691,-0.06094 0.146255,-0.03656 0.109691,-0.06094 0.01219,-0.341261 0.03656,-0.146255 0.182818,-0.170631 0.170631,-0.01219 0.134067,0.03656 0.0975,0.08532 0.0975,0.255947 v 0.536268 l -0.06094,0.121879 -0.08531,0.0975 -0.0975,0.07313 -0.231571,0.121879 -0.280322,0.08532 -0.0975,0.07313 -0.645959,0.06094 -0.64596,-0.07313 -0.109691,-0.06094 -0.268134,-0.08532 -0.341262,-0.195007 -0.07313,-0.0975 -0.04875,-0.134067 v -3.193233 l 0.04875,-0.134067 0.121879,-0.04875 0.0975,-0.08532 0.12188,-0.04875 0.109691,-0.07313 0.146255,-0.03656 0.0975,-0.07313 0.316886,-0.03656 z" />
      <path
         inkscape:connector-curvature="0"
         id="path5465"
         style="font-style:normal;font-variant:normal;font-weight:normal;font-stretch:normal;font-family:'CSI Cream Source Inside';-inkscape-font-specification:'CSI Cream Source Inside';fill:#000000;fill-opacity:1;stroke-width:0.15600526"
         d="m 83.915767,40.81331 h 0.243758 l 0.597208,0.0975 0.146255,0.08532 0.182818,0.04875 0.426577,0.268134 q 0.0457,0.07617 0.04875,0.182819 l -0.01219,3.193233 -0.121879,0.158443 -0.134067,0.0975 -0.170631,0.06094 -0.146255,0.08532 -0.182818,0.04875 -0.158443,0.07313 -0.426577,0.03656 -0.621584,-0.02438 -0.219382,-0.04875 -0.487517,-0.207195 -0.255946,-0.207194 -0.04875,-0.182819 0.01219,-3.241985 0.414389,-0.280322 0.182819,-0.04875 0.146255,-0.08532 0.402201,-0.06094 z m 0.0975,0.719087 -0.52408,0.06094 -0.182819,0.0975 -0.02438,0.268134 v 2.44977 l 0.304698,0.109691 0.243758,0.03656 h 0.560644 l 0.426577,-0.134067 0.01219,-2.705716 -0.280322,-0.146255 z" />
    </g>
    <g
       aria-label="MECO"
       transform="scale(1.486379,0.67277592)"
       style="font-style:normal;font-variant:normal;font-weight:normal;font-stretch:normal;font-size:6.24021101px;line-height:1.25;font-family:sans-serif;-inkscape-font-specification:sans-serif;letter-spacing:0px;word-spacing:0px;fill:#f20e10;fill-opacity:1;stroke:none;stroke-width:0.15600526;filter:url(#filter4826)"
       id="text7655">
      <path
         d="m 73.178216,40.825498 h 0.438765 l 0.195007,0.02438 0.134067,0.0975 0.03656,0.170631 0.08532,0.146255 0.02438,0.182818 0.07313,0.146255 0.158443,0.511893 0.03656,0.182818 0.134067,0.243759 0.03656,-0.231571 0.06094,-0.146255 0.0975,-0.341261 0.07313,-0.158443 0.02438,-0.182819 0.07313,-0.146255 0.03656,-0.182818 q 0.0091,-0.07922 0.07313,-0.146255 l 0.0975,-0.134067 0.182818,-0.03656 h 0.438765 l 0.195007,0.02438 0.109691,0.109691 0.04875,0.170631 v 3.729501 l -0.03656,0.170631 -0.109691,0.121879 -0.195007,0.0975 -0.268134,-0.0975 -0.06094,-0.158443 -0.02437,-3.046978 -0.03656,0.170631 q -0.0091,0.07922 -0.07313,0.146255 l -0.0975,0.341261 -0.07313,0.146255 -0.02438,0.195007 -0.08532,0.134067 -0.02437,0.195006 -0.109692,0.109692 -0.134067,0.08532 -0.426577,0.01219 -0.158442,-0.06094 -0.08532,-0.134067 -0.06094,-0.158443 -0.08532,-0.353449 -0.07313,-0.146255 -0.03656,-0.182819 -0.08532,-0.134067 -0.03656,-0.280322 -0.03656,0.07313 -0.01219,2.839783 -0.207194,0.231571 -0.146255,0.04875 -0.170631,-0.04875 q -0.07617,-0.02742 -0.121879,-0.109692 l -0.06094,-0.377825 v -3.497931 l 0.03656,-0.182818 0.08532,-0.146255 z"
         style="font-style:normal;font-variant:normal;font-weight:normal;font-stretch:normal;font-family:'CSI Cream Source Inside';-inkscape-font-specification:'CSI Cream Source Inside';fill:#f20e10;fill-opacity:1;stroke-width:0.15600526"
         id="path4771"
         inkscape:connector-curvature="0" />
      <path
         d="m 76.456765,40.898625 h 1.876938 l 0.280322,0.03656 0.06094,0.0975 0.07313,0.07313 0.01219,0.158443 -0.03656,0.121879 -0.146255,0.158443 -0.134067,0.03656 h -1.243167 l -0.121879,0.02437 -0.02438,0.134067 v 0.780027 l 0.03656,0.109691 h 0.780026 l 0.280322,0.03656 0.08532,0.07313 0.121879,0.195007 0.01219,0.06094 -0.134067,0.255946 -0.121879,0.04875 -0.914094,0.01219 -0.134067,0.02438 -0.01219,1.218791 0.134067,0.02438 1.547865,0.02438 0.08532,0.06094 0.07313,0.08532 0.03656,0.121879 0.03656,0.04875 -0.03656,0.03656 -0.03656,0.121879 -0.06094,0.0975 -0.0975,0.04875 -0.146255,0.02438 -2.169448,-0.01219 -0.07313,-0.08532 V 41.10582 l 0.03656,-0.134067 z"
         style="font-style:normal;font-variant:normal;font-weight:normal;font-stretch:normal;font-family:'CSI Cream Source Inside';-inkscape-font-specification:'CSI Cream Source Inside';fill:#f20e10;fill-opacity:1;stroke-width:0.15600526"
         id="path4773"
         inkscape:connector-curvature="0" />
      <path
         d="m 80.61589,40.801122 0.353449,0.01219 0.58502,0.121879 0.475328,0.231571 0.0975,0.08532 0.109691,0.06094 0.02438,0.158443 -0.01219,0.524081 -0.109691,0.255946 -0.121879,0.04875 -0.170631,0.01219 -0.134067,-0.03656 -0.158443,-0.207195 -0.02438,-0.146255 v -0.182819 l -0.182819,-0.158442 -0.633771,-0.06094 -0.499704,0.04875 -0.219383,0.134067 -0.01219,2.644777 0.0975,0.07313 0.146254,0.03656 0.0975,0.07313 0.329073,0.02438 0.511893,-0.02438 0.109691,-0.06094 0.146255,-0.03656 0.109691,-0.06094 0.01219,-0.341261 0.03656,-0.146255 0.182818,-0.170631 0.170631,-0.01219 0.134067,0.03656 0.0975,0.08532 0.0975,0.255947 v 0.536268 l -0.06094,0.121879 -0.08531,0.0975 -0.0975,0.07313 -0.231571,0.121879 -0.280322,0.08532 -0.0975,0.07313 -0.645959,0.06094 -0.64596,-0.07313 -0.109691,-0.06094 -0.268134,-0.08532 -0.341262,-0.195007 -0.07313,-0.0975 -0.04875,-0.134067 v -3.193233 l 0.04875,-0.134067 0.121879,-0.04875 0.0975,-0.08532 0.12188,-0.04875 0.109691,-0.07313 0.146255,-0.03656 0.0975,-0.07313 0.316886,-0.03656 z"
         style="font-style:normal;font-variant:normal;font-weight:normal;font-stretch:normal;font-family:'CSI Cream Source Inside';-inkscape-font-specification:'CSI Cream Source Inside';fill:#f20e10;fill-opacity:1;stroke-width:0.15600526"
         id="path4775"
         inkscape:connector-curvature="0" />
      <path
         d="m 83.915767,40.81331 h 0.243758 l 0.597208,0.0975 0.146255,0.08532 0.182818,0.04875 0.426577,0.268134 q 0.0457,0.07617 0.04875,0.182819 l -0.01219,3.193233 -0.121879,0.158443 -0.134067,0.0975 -0.170631,0.06094 -0.146255,0.08532 -0.182818,0.04875 -0.158443,0.07313 -0.426577,0.03656 -0.621584,-0.02438 -0.219382,-0.04875 -0.487517,-0.207195 -0.255946,-0.207194 -0.04875,-0.182819 0.01219,-3.241985 0.414389,-0.280322 0.182819,-0.04875 0.146255,-0.08532 0.402201,-0.06094 z m 0.0975,0.719087 -0.52408,0.06094 -0.182819,0.0975 -0.02438,0.268134 v 2.44977 l 0.304698,0.109691 0.243758,0.03656 h 0.560644 l 0.426577,-0.134067 0.01219,-2.705716 -0.280322,-0.146255 z"
         style="font-style:normal;font-variant:normal;font-weight:normal;font-stretch:normal;font-family:'CSI Cream Source Inside';-inkscape-font-specification:'CSI Cream Source Inside';fill:#f20e10;fill-opacity:1;stroke-width:0.15600526"
         id="path4777"
         inkscape:connector-curvature="0" />
    </g>
    <g
       aria-label="CSI:"
       transform="scale(1.211628,0.82533583)"
       style="font-style:normal;font-variant:normal;font-weight:normal;font-stretch:normal;font-size:8.73480415px;line-height:1.25;font-family:sans-serif;-inkscape-font-specification:sans-serif;letter-spacing:0px;word-spacing:0px;fill:#000000;fill-opacity:1;stroke:none;stroke-width:0.21837009"
       id="text5471">
      <path
         d="m 91.375805,38.962802 0.494744,0.01706 0.818888,0.170602 0.665347,0.324143 0.136481,0.119421 0.153541,0.0853 0.03412,0.221782 -0.01706,0.733587 -0.153542,0.358264 -0.170602,0.06824 -0.238842,0.01706 -0.187662,-0.05118 -0.221782,-0.290023 -0.03412,-0.204722 v -0.255902 l -0.255903,-0.221782 -0.887128,-0.0853 -0.699467,0.06824 -0.307083,0.187662 -0.01706,3.702056 0.136481,0.102361 0.204722,0.05118 0.136482,0.102361 0.460624,0.03412 0.716527,-0.03412 0.153541,-0.0853 0.204722,-0.05118 0.153542,-0.0853 0.01706,-0.477684 0.05118,-0.204722 0.255902,-0.238843 0.238842,-0.01706 0.187662,0.05118 0.136481,0.119421 0.136482,0.358263 v 0.750648 l -0.0853,0.170601 -0.119421,0.136482 -0.136482,0.102361 -0.324143,0.170601 -0.392383,0.119421 -0.136482,0.102361 -0.904188,0.0853 -0.904189,-0.102361 -0.153542,-0.0853 -0.375323,-0.119421 -0.477685,-0.272962 -0.102361,-0.136482 -0.06824,-0.187662 V 39.81581 l 0.06824,-0.187661 0.170602,-0.06824 0.136481,-0.119421 0.170602,-0.06824 0.153541,-0.102361 0.204722,-0.05118 0.136482,-0.102361 0.443564,-0.05118 z"
         style="font-style:normal;font-variant:normal;font-weight:normal;font-stretch:normal;font-family:'CSI Cream Source Inside';-inkscape-font-specification:'CSI Cream Source Inside';fill:#000000;fill-opacity:1;stroke-width:0.21837009"
         id="path5506"
         inkscape:connector-curvature="0" />
      <path
         d="m 95.909543,39.031043 h 0.580046 l 0.221782,0.06824 0.494745,0.0853 0.409444,0.187662 0.511804,0.358264 0.01706,0.853008 -0.03412,0.255902 -0.170601,0.119421 q -0.05545,0.09383 -0.170602,0.119422 h -0.255902 l -0.307083,-0.272963 -0.03412,-0.545925 -0.392384,-0.187662 -0.614165,-0.05118 -0.699467,0.0853 -0.170602,0.119421 q -0.06397,0.07677 -0.06824,0.204722 v 0.580046 l 0.03412,0.255902 0.187662,0.0853 0.255902,0.05118 0.170602,0.102361 0.255902,0.03412 0.204722,0.102361 0.460625,0.102361 0.187661,0.102361 0.255903,0.03412 0.204722,0.0853 0.460624,0.119421 0.375324,0.221782 v 2.0131 l -0.03412,0.255902 -0.204722,0.102361 -0.153542,0.136481 -0.221782,0.06824 -0.170602,0.119421 -0.238842,0.05118 -0.187662,0.0853 -0.255902,0.05118 -1.313633,-0.01706 -0.682406,-0.221782 -0.375324,-0.221782 -0.204722,-0.0853 -0.102361,-0.187662 -0.01706,-0.853008 0.06824,-0.221782 0.136482,-0.153542 0.324143,-0.102361 0.290023,0.153542 0.102361,0.187662 0.03412,0.255902 v 0.290023 l 0.631226,0.238842 1.108911,-0.01706 0.187662,-0.102361 0.221782,-0.06824 q 0.0981,-0.04265 0.102361,-0.170601 v -0.870069 l -0.153542,-0.119421 -0.204722,-0.0853 -0.238842,-0.05118 -0.204722,-0.102361 -0.238842,-0.03412 -0.426504,-0.153541 -0.255903,-0.03412 -0.187662,-0.119421 -0.238842,-0.05118 -0.409444,-0.153541 -0.255902,-0.03412 -0.170602,-0.119421 -0.06824,-0.221782 0.01706,-2.013099 0.341204,-0.255903 0.580045,-0.290023 0.494745,-0.0853 z"
         style="font-style:normal;font-variant:normal;font-weight:normal;font-stretch:normal;font-family:'CSI Cream Source Inside';-inkscape-font-specification:'CSI Cream Source Inside';fill:#000000;fill-opacity:1;stroke-width:0.21837009"
         id="path5508"
         inkscape:connector-curvature="0" />
      <path
         d="m 99.253335,39.099283 h 2.217825 l 0.3412,0.03412 q 0.11942,0.05118 0.20472,0.170601 l 0.0853,0.290023 -0.11942,0.255903 -0.18766,0.170601 -0.71653,0.03412 q -0.11089,0.07677 -0.11942,0.238842 v 3.923838 l 0.0853,0.03412 h 0.73359 q 0.14075,0.01706 0.23884,0.136481 0.0938,0.07251 0.1706,0.204722 l -0.0341,0.341204 -0.1706,0.187661 q -0.13222,0.06398 -0.30708,0.06824 h -2.593147 q -0.123686,-0.03839 -0.204722,-0.153541 l -0.153541,-0.238843 -0.01706,-0.06824 0.03412,-0.187662 0.187662,-0.238842 0.324143,-0.05118 H 99.8334 l 0.119422,-0.03412 v -4.060319 q -0.102361,-0.09383 -0.255903,-0.102361 l -0.580045,-0.01706 -0.05118,-0.0853 -0.187662,-0.187662 -0.03412,-0.153542 0.01706,-0.170601 q 0.02133,-0.127952 0.119421,-0.255903 z"
         style="font-style:normal;font-variant:normal;font-weight:normal;font-stretch:normal;font-family:'CSI Cream Source Inside';-inkscape-font-specification:'CSI Cream Source Inside';fill:#000000;fill-opacity:1;stroke-width:0.21837009"
         id="path5510"
         inkscape:connector-curvature="0" />
      <path
         d="m 103.07481,40.468362 h 0.92125 l 0.18766,0.03412 0.15354,0.06824 0.13649,0.102361 0.0682,0.153541 0.0171,0.682407 -0.0512,0.409444 -0.23885,0.204722 -0.40944,0.05118 -0.87007,-0.03412 -0.13648,-0.0853 -0.11942,-0.119421 -0.0853,-0.136482 -0.0341,-0.887128 0.0682,-0.153542 0.10236,-0.136481 0.15354,-0.06824 z m -0.1706,2.831987 h 1.33069 l 0.13648,0.0853 0.11943,0.119421 0.0512,0.170602 v 0.853008 l -0.0512,0.170601 -0.22179,0.221783 -1.33069,-0.01706 -0.13648,-0.0853 -0.1706,-0.272963 v -0.853008 l 0.15354,-0.290023 z"
         style="font-style:normal;font-variant:normal;font-weight:normal;font-stretch:normal;font-family:'CSI Cream Source Inside';-inkscape-font-specification:'CSI Cream Source Inside';fill:#000000;fill-opacity:1;stroke-width:0.21837009"
         id="path5512"
         inkscape:connector-curvature="0" />
    </g>
    <g
       aria-label="CSI:"
       transform="scale(1.211628,0.82533583)"
       style="font-style:normal;font-variant:normal;font-weight:normal;font-stretch:normal;font-size:8.73480415px;line-height:1.25;font-family:sans-serif;-inkscape-font-specification:sans-serif;letter-spacing:0px;word-spacing:0px;fill:#ead51d;fill-opacity:1;stroke:none;stroke-width:0.21837009;filter:url(#filter5495)"
       id="text7659">
      <path
         d="m 91.29002,38.836864 0.494744,0.01706 0.818888,0.170602 0.665347,0.324143 0.136481,0.119421 0.153542,0.0853 0.03412,0.221782 -0.01706,0.733587 -0.153542,0.358263 -0.170601,0.06824 -0.238843,0.01706 -0.187662,-0.05118 -0.221782,-0.290023 -0.03412,-0.204722 v -0.255903 l -0.255902,-0.221782 -0.887129,-0.0853 -0.699467,0.06824 -0.307083,0.187662 -0.01706,3.702056 0.136481,0.102361 0.204722,0.05118 0.136482,0.102361 0.460624,0.03412 0.716527,-0.03412 0.153542,-0.0853 0.204722,-0.05118 0.153541,-0.0853 0.01706,-0.477685 0.05118,-0.204722 0.255902,-0.238842 0.238842,-0.01706 0.187662,0.05118 0.136482,0.119421 0.136481,0.358264 v 0.750647 l -0.0853,0.170602 -0.119421,0.136481 -0.136481,0.102361 -0.324144,0.170602 -0.392383,0.119421 -0.136482,0.102361 -0.904188,0.0853 -0.904189,-0.102361 -0.153542,-0.0853 -0.375323,-0.119421 -0.477685,-0.272963 -0.102361,-0.136481 -0.06824,-0.187662 v -4.469763 l 0.06824,-0.187662 0.170602,-0.06824 0.136481,-0.119421 0.170602,-0.06824 0.153541,-0.102361 0.204722,-0.05118 0.136482,-0.102361 0.443564,-0.05118 z"
         style="font-style:normal;font-variant:normal;font-weight:normal;font-stretch:normal;font-family:'CSI Cream Source Inside';-inkscape-font-specification:'CSI Cream Source Inside';fill:#ead51d;fill-opacity:1;stroke-width:0.21837009"
         id="path5497"
         inkscape:connector-curvature="0" />
      <path
         d="m 95.823758,38.905104 h 0.580046 l 0.221782,0.06824 0.494745,0.0853 0.409444,0.187662 0.511805,0.358263 0.01706,0.853008 -0.03412,0.255903 -0.170601,0.119421 q -0.05545,0.09383 -0.170602,0.119421 h -0.255902 l -0.307083,-0.272963 -0.03412,-0.545925 -0.392383,-0.187662 -0.614166,-0.05118 -0.699467,0.0853 -0.170602,0.119421 q -0.06397,0.07677 -0.06824,0.204722 v 0.580045 l 0.03412,0.255903 0.187662,0.0853 0.255902,0.05118 0.170602,0.102361 0.255902,0.03412 0.204722,0.102361 0.460625,0.10236 0.187662,0.102361 0.255902,0.03412 0.204722,0.0853 0.460624,0.119421 0.375324,0.221782 v 2.013099 l -0.03412,0.255903 -0.204722,0.102361 -0.153542,0.136481 -0.221782,0.06824 -0.170602,0.119421 -0.238842,0.05118 -0.187662,0.0853 -0.255902,0.05118 -1.313633,-0.01706 -0.682406,-0.221783 -0.375324,-0.221782 -0.204722,-0.0853 -0.102361,-0.187661 -0.01706,-0.853009 0.06824,-0.221782 0.136481,-0.153541 0.324143,-0.102361 0.290023,0.153541 0.102361,0.187662 0.03412,0.255903 v 0.290022 l 0.631226,0.238843 1.108911,-0.01706 0.187662,-0.10236 0.221782,-0.06824 q 0.0981,-0.04265 0.102361,-0.170602 v -0.870068 l -0.153542,-0.119421 -0.204722,-0.0853 -0.238842,-0.05118 -0.204722,-0.102361 -0.238842,-0.03412 -0.426504,-0.153541 -0.255903,-0.03412 -0.187662,-0.119421 -0.238842,-0.05118 -0.409444,-0.153542 -0.255902,-0.03412 -0.170602,-0.119421 -0.06824,-0.221783 0.01706,-2.013099 0.341203,-0.255902 0.580045,-0.290023 0.494745,-0.0853 z"
         style="font-style:normal;font-variant:normal;font-weight:normal;font-stretch:normal;font-family:'CSI Cream Source Inside';-inkscape-font-specification:'CSI Cream Source Inside';fill:#ead51d;fill-opacity:1;stroke-width:0.21837009"
         id="path5499"
         inkscape:connector-curvature="0" />
      <path
         d="m 99.16755,38.973345 h 2.21782 l 0.3412,0.03412 q 0.11943,0.05118 0.20473,0.170602 l 0.0853,0.290023 -0.11942,0.255902 -0.18767,0.170602 -0.71652,0.03412 q -0.11089,0.07677 -0.11942,0.238843 v 3.923837 l 0.0853,0.03412 h 0.73358 q 0.14075,0.01706 0.23885,0.136481 0.0938,0.07251 0.1706,0.204722 l -0.0341,0.341203 -0.1706,0.187662 q -0.13222,0.06398 -0.30709,0.06824 h -2.593142 q -0.123686,-0.03839 -0.204722,-0.153542 l -0.153541,-0.238842 -0.01706,-0.06824 0.03412,-0.187662 0.187662,-0.238842 0.324143,-0.05118 h 0.580046 l 0.119421,-0.03412 v -4.060319 q -0.102361,-0.09383 -0.255903,-0.102361 l -0.580045,-0.01706 -0.05118,-0.0853 -0.187662,-0.187662 -0.03412,-0.153541 0.01706,-0.170602 q 0.02133,-0.127951 0.119421,-0.255902 z"
         style="font-style:normal;font-variant:normal;font-weight:normal;font-stretch:normal;font-family:'CSI Cream Source Inside';-inkscape-font-specification:'CSI Cream Source Inside';fill:#ead51d;fill-opacity:1;stroke-width:0.21837009"
         id="path5501"
         inkscape:connector-curvature="0" />
      <path
         d="m 102.98903,40.342423 h 0.92125 l 0.18766,0.03412 0.15354,0.06824 0.13648,0.102361 0.0682,0.153542 0.0171,0.682406 -0.0512,0.409444 -0.23884,0.204722 -0.40944,0.05118 -0.87007,-0.03412 -0.13648,-0.0853 -0.11943,-0.119421 -0.0853,-0.136481 -0.0341,-0.887129 0.0682,-0.153541 0.10236,-0.136481 0.15355,-0.06824 z m -0.1706,2.831987 h 1.33069 l 0.13648,0.0853 0.11942,0.119421 0.0512,0.170602 v 0.853008 l -0.0512,0.170602 -0.22178,0.221782 -1.33069,-0.01706 -0.13649,-0.0853 -0.1706,-0.272963 v -0.853008 l 0.15354,-0.290023 z"
         style="font-style:normal;font-variant:normal;font-weight:normal;font-stretch:normal;font-family:'CSI Cream Source Inside';-inkscape-font-specification:'CSI Cream Source Inside';fill:#ead51d;fill-opacity:1;stroke-width:0.21837009"
         id="path5503"
         inkscape:connector-curvature="0" />
    </g>
  </g>
</svg>
