<?xml version="1.0" encoding="UTF-8" standalone="no"?>
<!-- Created with Inkscape (http://www.inkscape.org/) -->

<svg
   xmlns:dc="http://purl.org/dc/elements/1.1/"
   xmlns:cc="http://creativecommons.org/ns#"
   xmlns:rdf="http://www.w3.org/1999/02/22-rdf-syntax-ns#"
   xmlns:svg="http://www.w3.org/2000/svg"
   xmlns="http://www.w3.org/2000/svg"
   xmlns:sodipodi="http://sodipodi.sourceforge.net/DTD/sodipodi-0.dtd"
   xmlns:inkscape="http://www.inkscape.org/namespaces/inkscape"
   width="49.314163mm"
   height="49.314163mm"
   viewBox="0 0 49.314163 49.314163"
   version="1.1"
   id="svg1503"
   inkscape:version="0.92.3 (2405546, 2018-03-11)"
   sodipodi:docname="projecteagle_marker1.svg">
  <defs
     id="defs1497" />
  <sodipodi:namedview
     id="base"
     pagecolor="#ffffff"
     bordercolor="#666666"
     borderopacity="1.0"
     inkscape:pageopacity="0.0"
     inkscape:pageshadow="2"
     inkscape:zoom="0.35"
     inkscape:cx="-239.66503"
     inkscape:cy="-72.522157"
     inkscape:document-units="mm"
     inkscape:current-layer="layer1"
     showgrid="false"
     fit-margin-top="0"
     fit-margin-left="0"
     fit-margin-right="0"
     fit-margin-bottom="0"
     inkscape:window-width="1920"
     inkscape:window-height="960"
     inkscape:window-x="0"
     inkscape:window-y="27"
     inkscape:window-maximized="1" />
  <metadata
     id="metadata1500">
    <rdf:RDF>
      <cc:Work
         rdf:about="">
        <dc:format>image/svg+xml</dc:format>
        <dc:type
           rdf:resource="http://purl.org/dc/dcmitype/StillImage" />
        <dc:title></dc:title>
      </cc:Work>
    </rdf:RDF>
  </metadata>
  <g
     inkscape:label="Layer 1"
     inkscape:groupmode="layer"
     id="layer1"
     transform="translate(-23.723872,-80.331018)">
    <g
       id="g4305"
       transform="matrix(0.0699978,0.19231737,-0.19231737,0.0699978,78.964744,137.48671)">
      <circle
         r="118.68452"
         cy="86.114502"
         cx="-200.32739"
         id="circle4279"
         style="opacity:1;fill:#ffffff;fill-opacity:1;stroke:#000000;stroke-width:3.53219199;stroke-linecap:round;stroke-linejoin:round;stroke-miterlimit:4;stroke-dasharray:none;stroke-dashoffset:0;stroke-opacity:1" />
      <g
         transform="matrix(0.26458333,0,0,0.26458333,-297.00697,-0.97423758)"
         id="g4303">
        <path
           inkscape:connector-curvature="0"
           d="m 230.9375,297.37367 h 268.935 v 268.935 h -268.935 z"
           id="path4281"
           style="fill:#000000;fill-opacity:1;fill-rule:nonzero;stroke:none" />
        <path
           inkscape:connector-curvature="0"
           d="m 99.65375,332.18242 c 55.03875,0 99.6575,44.61875 99.6575,99.65875 0,55.03875 -44.61875,99.6525 -99.6575,99.6525 C 44.61875,531.49367 0,486.87992 0,431.84117 c 0,-55.04 44.61875,-99.65875 99.65375,-99.65875 z"
           id="path4283"
           style="fill:#000000;fill-opacity:1;fill-rule:nonzero;stroke:none" />
        <path
           inkscape:connector-curvature="0"
           d="m 631.1525,332.18242 c 55.03875,0 99.65375,44.61875 99.65375,99.65875 0,55.03875 -44.615,99.6525 -99.65375,99.6525 -55.03875,0 -99.65875,-44.61375 -99.65875,-99.6525 0,-55.04 44.62,-99.65875 99.65875,-99.65875 z"
           id="path4285"
           style="fill:#000000;fill-opacity:1;fill-rule:nonzero;stroke:none" />
        <path
           inkscape:connector-curvature="0"
           d="m 365.405,-8e-5 c 55.035,0 99.65375,44.61875 99.65375,99.65375 0,55.03875 -44.61875,99.6575 -99.65375,99.6575 -55.03875,0 -99.6575,-44.61875 -99.6575,-99.6575 0,-55.035 44.61875,-99.65375 99.6575,-99.65375 z"
           id="path4287"
           style="fill:#000000;fill-opacity:1;fill-rule:nonzero;stroke:none" />
        <path
           inkscape:connector-curvature="0"
           d="m 264.15,330.58117 h 202.51 v 202.515 H 264.15 Z"
           id="path4289"
           style="fill:#ffffff;fill-opacity:1;fill-rule:nonzero;stroke:none" />
        <g
           transform="matrix(0,-1.25,1.25,0,0,-5e-6)"
           id="g4293">
          <path
             inkscape:connector-curvature="0"
             d="m -426.484,292.324 h 162.023"
             id="path4291"
             style="fill:none;stroke:#000000;stroke-width:0.132874;stroke-linecap:butt;stroke-linejoin:miter;stroke-miterlimit:4;stroke-dasharray:none;stroke-opacity:0.273148" />
        </g>
        <g
           transform="matrix(0,-1.25,1.25,0,0,-5e-6)"
           id="g4297">
          <path
             inkscape:connector-curvature="0"
             d="m -345.473,211.312 v 162.02"
             id="path4295"
             style="fill:none;stroke:#000000;stroke-width:0.132874;stroke-linecap:butt;stroke-linejoin:miter;stroke-miterlimit:4;stroke-dasharray:none;stroke-opacity:0.273148" />
        </g>
        <path
           inkscape:connector-curvature="0"
           d="M 257.315,317.32367 H 365.47875 V 431.84992 H 257.315 Z"
           id="path4299"
           style="fill:#000000;fill-opacity:1;fill-rule:nonzero;stroke:none" />
        <path
           inkscape:connector-curvature="0"
           d="M 365.47875,431.85117 H 473.6475 V 546.38242 H 365.47875 Z"
           id="path4301"
           style="fill:#000000;fill-opacity:1;fill-rule:nonzero;stroke:none" />
      </g>
    </g>
  </g>
</svg>
