<?xml version="1.0" encoding="UTF-8" standalone="no"?>
<!-- Created with Inkscape (http://www.inkscape.org/) -->

<svg
   xmlns:dc="http://purl.org/dc/elements/1.1/"
   xmlns:cc="http://creativecommons.org/ns#"
   xmlns:rdf="http://www.w3.org/1999/02/22-rdf-syntax-ns#"
   xmlns:svg="http://www.w3.org/2000/svg"
   xmlns="http://www.w3.org/2000/svg"
   xmlns:sodipodi="http://sodipodi.sourceforge.net/DTD/sodipodi-0.dtd"
   xmlns:inkscape="http://www.inkscape.org/namespaces/inkscape"
   version="1.1"
   id="svg2"
   xml:space="preserve"
   width="355.86856"
   height="152.30006"
   viewBox="0 0 355.86856 152.30006"
   sodipodi:docname="velocity_model.svg"
   inkscape:version="0.92.3 (2405546, 2018-03-11)"><metadata
     id="metadata8"><rdf:RDF><cc:Work
         rdf:about=""><dc:format>image/svg+xml</dc:format><dc:type
           rdf:resource="http://purl.org/dc/dcmitype/StillImage" /><dc:title></dc:title></cc:Work></rdf:RDF></metadata><defs
     id="defs6"><clipPath
       clipPathUnits="userSpaceOnUse"
       id="clipPath222"><path
         d="M -75.58989,0 H 151.17978 V 85.03986 H -75.58989 Z"
         id="path220"
         inkscape:connector-curvature="0" /></clipPath><clipPath
       clipPathUnits="userSpaceOnUse"
       id="clipPath540"><path
         d="M -75.58989,0 H 151.17978 V 85.03773 H -75.58989 Z"
         id="path538"
         inkscape:connector-curvature="0" /></clipPath></defs><sodipodi:namedview
     pagecolor="#ffffff"
     bordercolor="#666666"
     borderopacity="1"
     objecttolerance="10"
     gridtolerance="10"
     guidetolerance="10"
     inkscape:pageopacity="0"
     inkscape:pageshadow="2"
     inkscape:window-width="1920"
     inkscape:window-height="960"
     id="namedview4"
     showgrid="false"
     fit-margin-top="0"
     fit-margin-left="0"
     fit-margin-right="0"
     fit-margin-bottom="0"
     inkscape:zoom="3.0512902"
     inkscape:cx="211.93996"
     inkscape:cy="59.35896"
     inkscape:window-x="0"
     inkscape:window-y="27"
     inkscape:window-maximized="1"
     inkscape:current-layer="g10" /><g
     id="g10"
     inkscape:groupmode="layer"
     inkscape:label="velocity_model"
     transform="matrix(1.3333333,0,0,-1.3333333,42.819368,118.96286)"><g
   id="g14" /><g
   id="g18" /><g
   id="g20" /><g
   id="g22"><g
     id="g24" /></g><g
   id="g26" /><g
   id="g28" /><g
   id="g30" /><g
   id="g32" /><g
   id="g40"
   transform="translate(75.588)" /><g
   id="g46"
   transform="translate(75.588)"><path
     inkscape:connector-curvature="0"
     id="path48"
     style="fill:#ffffff;fill-opacity:1;fill-rule:nonzero;stroke:none"
     d="M -75.58989,0 H 151.17978 V 85.03986 H -75.58989 Z" /></g><path
   inkscape:connector-curvature="0"
   id="path54"
   style="fill:none;stroke:#000000;stroke-width:0.19925;stroke-linecap:butt;stroke-linejoin:miter;stroke-miterlimit:10;stroke-dasharray:none;stroke-opacity:1"
   d="M -0.00189,0 V 2.83482 M 22.75292,0 V 2.83482 M 36.06388,0 V 2.83482 M 45.50775,0 V 2.83482 M 52.8332,0 V 2.83482 M 58.81871,0 V 2.83482 M 63.879,0 V 2.83482 M 68.26256,0 V 2.83482 M 72.12917,0 V 2.83482 M 75.588,0 V 2.83482 M 98.3428,0 V 2.83482 M 111.65377,0 V 2.83482 M 121.09761,0 V 2.83482 M 128.42308,0 V 2.83482 M 134.40857,0 V 2.83482 M 139.46886,0 V 2.83482 M 143.85242,0 V 2.83482 M 147.71903,0 V 2.83482 M 151.17789,0 V 2.83482 M 173.9327,0 V 2.83482 M 187.24365,0 V 2.83482 M 196.68752,0 V 2.83482 M 204.01297,0 V 2.83482 M 209.99848,0 V 2.83482 M 215.05876,0 V 2.83482 M 219.44232,0 V 2.83482 M 223.30893,0 V 2.83482 M -0.00189,85.03986 v -2.83484 m 22.75481,2.83484 v -2.83484 m 13.31096,2.83484 v -2.83484 m 9.44387,2.83484 v -2.83484 m 7.32545,2.83484 v -2.83484 m 5.98551,2.83484 v -2.83484 m 5.06029,2.83484 v -2.83484 m 4.38356,2.83484 v -2.83484 m 3.86661,2.83484 v -2.83484 m 3.45883,2.83484 v -2.83484 m 22.7548,2.83484 v -2.83484 m 13.31097,2.83484 v -2.83484 m 9.44384,2.83484 v -2.83484 m 7.32547,2.83484 v -2.83484 m 5.98549,2.83484 v -2.83484 m 5.06029,2.83484 v -2.83484 m 4.38356,2.83484 v -2.83484 m 3.86661,2.83484 v -2.83484 m 3.45886,2.83484 v -2.83484 m 22.75481,2.83484 v -2.83484 m 13.31095,2.83484 v -2.83484 m 9.44387,2.83484 v -2.83484 m 7.32545,2.83484 v -2.83484 m 5.98551,2.83484 v -2.83484 m 5.06028,2.83484 v -2.83484 m 4.38356,2.83484 v -2.83484 m 3.86661,2.83484 v -2.83484" /><g
   id="g56"
   transform="translate(75.588)"><path
     d="M -75.58989,0 V 4.25182 M 0,0 V 4.25182 M 75.58989,0 V 4.25182 M 151.17978,0 V 4.25182 M -75.58989,85.03986 V 80.78802 M 0,85.03986 v -4.25184 m 75.58989,4.25184 v -4.25184 m 75.58989,4.25184 v -4.25184"
     style="fill:none;stroke:#000000;stroke-width:0.19925;stroke-linecap:butt;stroke-linejoin:miter;stroke-miterlimit:10;stroke-dasharray:none;stroke-opacity:1"
     id="path58"
     inkscape:connector-curvature="0" /></g><path
   inkscape:connector-curvature="0"
   id="path64"
   style="fill:none;stroke:#000000;stroke-width:0.19925;stroke-linecap:butt;stroke-linejoin:miter;stroke-miterlimit:10;stroke-dasharray:none;stroke-opacity:1"
   d="M -0.00189,17.00797 H 4.24343 M -0.00189,51.02391 H 4.24343 M -0.00189,85.03986 H 4.24343 M 226.76778,17.00797 h -4.24528 m 4.24528,34.01594 h -4.24528 m 4.24528,34.01595 h -4.24528" /><g
   id="g66"
   transform="translate(75.588)"><path
     inkscape:connector-curvature="0"
     id="path68"
     style="fill:none;stroke:#000000;stroke-width:0.3985;stroke-linecap:butt;stroke-linejoin:miter;stroke-miterlimit:10;stroke-dasharray:none;stroke-opacity:1"
     d="M -75.58989,0 H 151.17978" /></g><g
   id="g70"
   transform="translate(75.588)" /><g
   id="g74"
   transform="translate(75.588)"><path
     inkscape:connector-curvature="0"
     id="path76"
     style="fill:none;stroke:#000000;stroke-width:0.3985;stroke-linecap:butt;stroke-linejoin:miter;stroke-miterlimit:10;stroke-dasharray:none;stroke-opacity:1"
     d="M -75.58989,0 V 85.03986" /></g><g
   id="g78"
   transform="translate(75.588)" /><g
   id="g106"
   transform="translate(75.588)"><g
     transform="translate(-7.181,-11.63)"
     id="g108"><g
       id="g110"><g
         transform="translate(-114.327,-128.335)"
         id="g112"><text
   id="text116"
   style="font-variant:normal;font-weight:normal;font-size:9.96263981px;font-family:CMR10;-inkscape-font-specification:CMR10;writing-mode:lr-tb;fill:#000000;fill-opacity:1;fill-rule:nonzero;stroke:none"
   transform="matrix(1,0,0,-1,114.327,128.335)"><tspan
     id="tspan114"
     sodipodi:role="line"
     y="0"
     x="0 4.9813199"
     style="font-style:normal;font-variant:normal;font-weight:normal;font-stretch:normal;font-family:sans-serif;-inkscape-font-specification:sans-serif">10</tspan></text>


<text
   id="text120"
   style="font-variant:normal;font-weight:normal;font-size:6.97384977px;font-family:CMR7;-inkscape-font-specification:CMR7;writing-mode:lr-tb;fill:#000000;fill-opacity:1;fill-rule:nonzero;stroke:none"
   transform="scale(1,-1)"
   x="125.79"
   y="-131.952"><tspan
     id="tspan118"
     y="-131.952"
     x="125.79"
     style="font-style:normal;font-variant:normal;font-weight:normal;font-stretch:normal;font-family:sans-serif;-inkscape-font-specification:sans-serif">0</tspan></text>


<g
   transform="translate(114.327,128.335)"
   id="g122" /></g></g><g
       transform="translate(7.181,11.63)"
       id="g124" /></g></g><g
   id="g126"
   transform="translate(75.588)"><g
     transform="translate(68.408,-11.63)"
     id="g128"><g
       id="g130"><g
         transform="translate(-189.916,-128.335)"
         id="g132"><text
   id="text136"
   style="font-variant:normal;font-weight:normal;font-size:9.96263981px;font-family:CMR10;-inkscape-font-specification:CMR10;writing-mode:lr-tb;fill:#000000;fill-opacity:1;fill-rule:nonzero;stroke:none"
   transform="matrix(1,0,0,-1,189.916,128.335)"><tspan
     id="tspan134"
     sodipodi:role="line"
     y="0"
     x="0 4.9813199"
     style="font-style:normal;font-variant:normal;font-weight:normal;font-stretch:normal;font-family:sans-serif;-inkscape-font-specification:sans-serif">10</tspan></text>


<text
   id="text140"
   style="font-variant:normal;font-weight:normal;font-size:6.97384977px;font-family:CMR7;-inkscape-font-specification:CMR7;writing-mode:lr-tb;fill:#000000;fill-opacity:1;fill-rule:nonzero;stroke:none"
   transform="scale(1,-1)"
   x="201.379"
   y="-131.952"><tspan
     id="tspan138"
     y="-131.952"
     x="201.379"
     style="font-style:normal;font-variant:normal;font-weight:normal;font-stretch:normal;font-family:sans-serif;-inkscape-font-specification:sans-serif">1</tspan></text>


<g
   transform="translate(189.916,128.335)"
   id="g142" /></g></g><g
       transform="translate(-68.408,11.63)"
       id="g144" /></g></g><g
   id="g146"
   transform="translate(75.588)"><g
     transform="translate(143.997,-11.63)"
     id="g148"><g
       id="g150"><g
         transform="translate(-265.505,-128.335)"
         id="g152"><text
   id="text156"
   style="font-variant:normal;font-weight:normal;font-size:9.96263981px;font-family:CMR10;-inkscape-font-specification:CMR10;writing-mode:lr-tb;fill:#000000;fill-opacity:1;fill-rule:nonzero;stroke:none"
   transform="matrix(1,0,0,-1,265.505,128.335)"><tspan
     id="tspan154"
     sodipodi:role="line"
     y="0"
     x="0 4.9813199"
     style="font-style:normal;font-variant:normal;font-weight:normal;font-stretch:normal;font-family:sans-serif;-inkscape-font-specification:sans-serif">10</tspan></text>


<text
   id="text160"
   style="font-variant:normal;font-weight:normal;font-size:6.97384977px;font-family:CMR7;-inkscape-font-specification:CMR7;writing-mode:lr-tb;fill:#000000;fill-opacity:1;fill-rule:nonzero;stroke:none"
   transform="scale(1,-1)"
   x="276.96799"
   y="-131.952"><tspan
     id="tspan158"
     y="-131.952"
     x="276.96799"
     style="font-style:normal;font-variant:normal;font-weight:normal;font-stretch:normal;font-family:sans-serif;-inkscape-font-specification:sans-serif">2</tspan></text>


<g
   transform="translate(265.505,128.335)"
   id="g162" /></g></g><g
       transform="translate(-143.997,11.63)"
       id="g164" /></g></g><g
   id="g166"
   transform="translate(75.588)"><g
     transform="translate(-95.406,13.797)"
     id="g168"><g
       id="g170"><g
         transform="translate(-26.102,-153.762)"
         id="g172"><text
   id="text176"
   style="font-variant:normal;font-weight:normal;font-size:9.96263981px;font-family:txsys;-inkscape-font-specification:txsys;writing-mode:lr-tb;fill:#000000;fill-opacity:1;fill-rule:nonzero;stroke:none"
   transform="matrix(1,0,0,-1,26.102,153.762)"><tspan
     id="tspan174"
     y="0"
     x="0">−</tspan></text>


<text
   id="text180"
   style="font-variant:normal;font-weight:normal;font-size:9.96263981px;font-family:CMR10;-inkscape-font-specification:CMR10;writing-mode:lr-tb;fill:#000000;fill-opacity:1;fill-rule:nonzero;stroke:none"
   transform="matrix(1,0,0,-1,32.438,153.762)"><tspan
     id="tspan178"
     sodipodi:role="line"
     y="0"
     x="0 4.9813199"
     style="font-style:normal;font-variant:normal;font-weight:normal;font-stretch:normal;font-family:sans-serif;-inkscape-font-specification:sans-serif">20</tspan></text>


<g
   transform="translate(26.102,153.762)"
   id="g182" /></g></g><g
       transform="translate(95.406,-13.797)"
       id="g184" /></g></g><g
   id="g186"
   transform="translate(75.588)"><g
     transform="translate(-84.089,47.813)"
     id="g188"><g
       id="g190"><g
         transform="translate(-37.419,-187.778)"
         id="g192"><text
   id="text196"
   style="font-variant:normal;font-weight:normal;font-size:9.96263981px;font-family:CMR10;-inkscape-font-specification:CMR10;writing-mode:lr-tb;fill:#000000;fill-opacity:1;fill-rule:nonzero;stroke:none"
   transform="matrix(1,0,0,-1,37.419,187.778)"><tspan
     id="tspan194"
     y="0"
     x="0"
     style="font-style:normal;font-variant:normal;font-weight:normal;font-stretch:normal;font-family:sans-serif;-inkscape-font-specification:sans-serif">0</tspan></text>


<g
   transform="translate(37.419,187.778)"
   id="g198" /></g></g><g
       transform="translate(84.089,-47.813)"
       id="g200" /></g></g><g
   id="g202"
   transform="translate(75.588)"><g
     transform="translate(-89.07,81.828)"
     id="g204"><g
       id="g206"><g
         transform="translate(-32.438,-221.793)"
         id="g208"><text
   id="text212"
   style="font-variant:normal;font-weight:normal;font-size:9.96263981px;font-family:CMR10;-inkscape-font-specification:CMR10;writing-mode:lr-tb;fill:#000000;fill-opacity:1;fill-rule:nonzero;stroke:none"
   transform="matrix(1,0,0,-1,32.438,221.793)"><tspan
     id="tspan210"
     sodipodi:role="line"
     y="0"
     x="0 4.9813199"
     style="font-style:normal;font-variant:normal;font-weight:normal;font-stretch:normal;font-family:sans-serif;-inkscape-font-specification:sans-serif">20</tspan></text>


<g
   transform="translate(32.438,221.793)"
   id="g214" /></g></g><g
       transform="translate(89.07,-81.828)"
       id="g216" /></g></g><rect
   style="fill:#ffffff;fill-opacity:1;stroke:none;stroke-width:0.85039377;stroke-linecap:round;stroke-linejoin:round;stroke-miterlimit:4;stroke-dasharray:none;stroke-dashoffset:0;stroke-opacity:1"
   id="rect1447"
   width="11.798287"
   height="65.136383"
   x="217.43852"
   y="-77.69928"
   transform="scale(1,-1)"
   rx="14.400001"
   ry="10.5693" /><rect
   style="fill:#ffffff;fill-opacity:1;stroke:none;stroke-width:0.85039377;stroke-linecap:round;stroke-linejoin:round;stroke-miterlimit:4;stroke-dasharray:none;stroke-dashoffset:0;stroke-opacity:1"
   id="rect1445"
   width="216.05615"
   height="10.5693"
   x="15.884433"
   y="-88.514374"
   transform="scale(1,-1)"
   rx="14.400001"
   ry="10.5693" /><g
   clip-path="url(#clipPath222)"
   id="g218"
   transform="translate(75.588)"><g
     id="g224"><path
       inkscape:connector-curvature="0"
       id="path226"
       style="fill:none;stroke:#ce4918;stroke-width:0.75;stroke-linecap:round;stroke-linejoin:miter;stroke-miterlimit:10;stroke-dasharray:none;stroke-dashoffset:0;stroke-opacity:1"
       d="m -52.83807,78.0154 13.31297,-4.75434 9.44485,-2.34843 7.32495,-4.37733 5.985,-2.55018 5.05779,0.2087 4.38707,-17.22489 3.8661,4.67487 L 0,55.3886 l 3.12823,5.5371 2.85625,0.74303 2.62833,1.40645 2.43197,-8.677 2.26517,2.84373 2.11739,5.64121 1.98915,-6.93885 1.87794,0.80993 1.77377,4.10662 1.68359,-0.90463 1.60394,-0.23269 1.52682,1.60916 1.45967,3.08818 1.39707,-1.98786 1.34047,1.38619 1.28785,-2.33027 1.23779,2.24195 1.19419,-5.29248 1.15262,7.63672 1.11255,-1.93833 1.07448,-6.5724 1.0424,4.92738 1.00986,0.52413 0.9798,-0.63374 0.95124,1.6893 0.92672,-0.20163 0.89915,1.49113 0.8746,-0.31976 0.85358,0.56634 0.83302,0.35758 0.80999,3.60487 0.78996,-5.35219 0.77292,-5.53689 0.75488,6.48559 0.73836,1.19844 0.72131,-1.51144 0.7063,-3.75337 0.69078,4.58888 0.67674,0.04718 0.66373,1.07549 0.64969,0.63624 0.63766,-0.78656 0.62516,0.73777 0.61312,-0.67531 0.60262,1.32263 0.59158,-1.33501 0.58007,2.74745 0.57254,-0.84378 0.56002,1.10748 0.55252,-1.61856 0.54149,0.9543 0.53299,-1.1156 0.52597,1.9629 0.51644,-1.11233 0.50944,2.65073 0.50041,-0.0501 0.49492,-1.78527 0.4849,1.24041 0.48088,1.20903 0.47037,-4.09359 0.46534,2.8739 0.45935,2.50241 0.45133,-0.53587 0.44983,-2.16381 0.43679,1.09104 0.43781,-1.65715 0.42479,0.3093 0.42879,3.27026 0.41424,-0.81449 0.41878,1.78119 0.40726,-1.49571 0.40272,2.10318 0.39774,-0.72703 0.39222,-0.71368 0.38923,-1.43899 0.38369,0.56509 0.3797,0.74401 0.37519,1.28114 0.37068,0.42528 0.36767,-2.98589 0.36217,2.1386 0.35916,0.38347 0.35465,1.03506 0.35165,-0.44226 0.34764,0.17409 0.34313,-1.0853 0.34013,0.57828 0.33661,-0.2976 0.33362,0.2083 0.33061,0.71277 0.3261,3.53993 0.32408,-3.853 0.31909,1.36947 0.31709,-3.44519 0.31458,4.07716 0.31106,-1.9514 0.30858,0.56102 0.30556,0.33664 0.30205,2.3128 0.30004,-1.30984 0.29706,1.19942 0.29454,-4.29697 0.29154,3.74365 0.28952,-2.62783 0.28652,2.5309 0.28452,-0.23494 0.28203,-1.50164 0.27951,1.16333 0.27701,1.00424 0.27402,-0.05343 0.2735,0.26547 0.26948,-0.03934 0.26799,0.40783 0.26599,0.4327 0.26349,-3.1613 0.26149,2.1704 0.25946,-2.56969 0.25798,-0.96493 0.25496,5.00674 0.25397,-1.21667 0.25097,-2.7177 0.24897,1.28866 0.24794,-1.47503 0.24745,2.9799 0.24345,-2.02928 0.24245,0.26592 0.23994,-2.67112 0.23844,5.04088 0.23694,-0.3634 0.23544,-2.06838 0.23391,0.58645 0.23194,0.53434 0.22891,1.88771 0.22992,-0.83853 0.22793,2.56853 0.2244,-4.74449 0.22393,-0.32758 0.22189,-0.37533 0.22142,3.74124 0.2209,-0.19459 0.2169,-1.09908 0.21641,-1.45948 0.21539,1.71321 0.21438,-0.73648 0.2114,1.08016 0.21238,-3.94386 0.20989,2.16643 0.20888,0.58032 0.20538,0.71614 0.20638,1.26806 0.20337,-2.32499 0.20538,1.37355 0.20187,-2.15602 0.19937,2.5596 0.19936,-1.28646 0.19788,-0.84533 0.20036,2.74226 0.19435,-3.6377 0.19586,1.14293 0.19135,-0.67952 0.19237,1.4989 0.19185,-1.29649 0.19235,0.67763 0.18785,-0.29074 0.18683,1.94478 0.18684,-2.94301 0.18686,-0.0078 0.18533,0.74545 0.18434,0.22144 0.18334,1.31618 0.18083,-1.45053 0.17983,2.92005 0.17782,-7.77186 0.18334,3.44905 0.17532,0.76836 0.17734,-1.85421 0.1753,3.41716 0.17383,-1.53419 0.17733,-0.94704 0.17282,1.56508 0.1713,-1.62555 0.17033,0.91373 0.1703,-0.76036 0.16731,-2.62437 0.17433,-0.6661 0.16629,3.12102 0.16431,-0.0098 0.16832,0.81412 0.1633,-4.89431 0.1678,1.73504 0.16631,2.46384 0.16279,-0.57152 0.16229,-2.2098 0.16082,-1.50811 0.16078,0.45607 0.15928,4.25959 0.15981,-3.95776 0.15729,-1.71176 0.15779,4.35199 0.1568,-2.46528 0.15527,-0.37266 0.15578,0.91753 0.1548,1.27659 0.15327,-0.58573 0.15279,-0.99302 0.15327,-0.78126 0.15077,-0.80135 0.1513,0.53998 0.15027,1.15471 0.14927,-2.72566 0.14878,1.37944 0.14877,0.61553 0.14778,-0.82331 0.14676,0.15681 0.14627,1.52752 0.14476,-2.3966 0.14578,2.97901 0.14426,-1.88217 0.14326,-1.80805 0.14327,0.56622 0.14226,1.35303 0.14227,0.59387 0.14074,-2.018 0.14126,-1.2531 0.14026,0.63442 0.13926,-1.15221 0.13875,-0.41617 0.13826,1.97653 0.13675,2.60572 0.13726,-3.02884 0.13723,-0.05725 0.13525,0.1006 0.13526,-0.1431 0.13526,-0.07811 0.13374,-0.81059 0.13424,1.95949 0.13326,-1.58037 0.13273,-3.2621 0.13175,0.77464 0.13174,1.35961 0.13074,-1.75408 0.13074,1.09595 0.13023,-1.06021 0.12874,-2.38395 0.12924,2.54621 0.12925,0.73472 0.12772,0.35097 0.12725,-3.0562 0.12721,1.82609 0.12674,-0.40525 0.12622,-0.4835 0.12474,1.94227 0.12523,-2.01032 0.12373,0.73151 0.12473,-0.99009 0.12323,0.23419 0.12373,-0.6722 0.12372,1.1012 0.12173,-1.09571 0.12072,-0.27024 0.12121,1.04814 0.12224,1.56418 0.1192,-3.87482 0.12073,2.0247 0.11923,-1.28028 0.11821,1.2762 0.11922,-0.20232 0.11871,-1.993 0.11821,1.49663 0.11724,-1.75931 0.1172,1.60295 0.11671,-0.63369 0.11573,0.77783 0.11621,-2.55315 0.1152,3.89276 0.11372,-2.5092 0.1147,-0.74315 0.11521,-0.56485 0.11322,1.75563 0.1147,-0.80226 0.11272,0.62413 0.11169,1.15424 0.11272,-0.34112 0.1112,-5.21982 0.1117,3.80464 0.11021,-0.80196 0.11121,-1.80714 0.1102,0.92614 0.10969,1.09798 0.11121,-0.63592 0.1092,-1.31418 0.1077,0.36154 0.1097,0.66299 0.10771,0.20374 0.10718,-2.50893 0.1072,0.28253 0.1082,3.46344 0.10621,-1.73745 0.10519,3.51303 0.10619,-5.34561 0.10569,-1.56856 0.10669,0.82249 0.10469,-3.69566 0.1042,7.99977 0.1047,-5.0448 0.10519,3.14081 0.10368,-2.18459 0.10169,-0.71354 0.10269,3.03227 0.1032,-3.16037 0.10168,-0.37924 0.10219,0.05723 0.10268,-0.15939 0.10269,2.22783 0.10019,2.62443 0.1017,0.32393 0.0997,-5.37451 0.0997,1.20126 0.10017,0.74393 0.0992,-4.09642 0.0997,1.51381 0.0982,4.04675 0.0987,-5.34814 0.10168,1.04162 0.0972,2.66903 0.0972,-1.56447 0.0972,1.98799 0.0987,-0.9599 0.0962,-4.06596 0.0952,3.57418 0.0972,-3.83386 0.0947,5.71579 0.0952,-3.98854 0.0972,3.14865 0.0967,-0.10173 0.0957,-2.48654 0.0937,-1.77028 0.0937,0.99791 0.0937,0.65244 0.0937,-0.03714" /></g><g
     id="g228"><path
       inkscape:connector-curvature="0"
       id="path230"
       style="fill:none;stroke:#1a4be0;stroke-width:0.99628001;stroke-linecap:butt;stroke-linejoin:miter;stroke-miterlimit:10;stroke-dasharray:none;stroke-opacity:1"
       d="m -75.58989,82.37294 2.28972,-1.01419 2.29021,-1.01173 2.2917,-1.00893 2.29022,-1.00571 2.29021,-1.002 2.2912,-0.99775 2.2877,-0.99294 2.29071,-0.98738 2.2897,-0.98106 2.29424,-0.97385 2.2897,-0.96565 2.29122,-0.95627 2.29168,-0.94563 2.28972,-0.93358 2.28922,-0.91988 2.2902,-0.90443 2.2907,-0.887 2.29071,-0.86736 2.28871,-0.84537 2.29422,-0.82077 2.29021,-0.79336 2.29021,-0.76292 2.29121,-0.72932 2.29021,-0.69239 2.29071,-0.65194 2.2892,-0.60799 2.29272,-0.56045 2.28819,-0.5094 2.29021,-0.45496 2.29273,-0.39726 2.2902,-0.3367 2.29071,-0.27352 L 0,56.37303 2.2897,56.2318 l 2.29021,-0.0732 2.2917,-0.0046 2.29021,0.06378 2.29021,0.13151 2.29121,0.19792 2.28769,0.26247 2.29071,0.32462 2.28972,0.38394 2.29422,0.44006 2.2897,0.49269 2.29122,0.54163 2.2917,0.58667 2.28972,0.62781 2.2892,0.66499 2.2902,0.69832 2.29071,0.7278 2.29071,0.75361 2.28872,0.7759 2.29422,0.79484 2.2902,0.81056 2.29021,0.82335 2.2912,0.83332 2.29021,0.84076 2.2907,0.84573 2.2892,0.8486 2.29273,0.84934 2.28819,0.84814 2.29021,0.84491 2.29272,0.83938 2.29021,0.83094 2.29071,0.81821 2.29172,0.79884 2.28971,0.76865 2.2902,0.72088 2.29172,0.64505 2.2902,0.52594 2.29021,0.34415 2.29122,0.08004 2.28768,-0.2766 2.29071,-0.71354 2.28972,-1.18942 2.29421,-1.6459 2.28972,-2.03356 2.2912,-2.33018 2.29171,-2.53987 2.2897,-2.68045 2.2892,-2.77211 2.29021,-2.83168 2.29071,-2.87125 2.29071,-2.89877 2.28872,-2.91922 2.29422,-2.93557 2.2902,-2.9495 2.29021,-2.96199 2.29122,-2.97352 2.2902,-2.98427 2.29071,-2.99441 2.2892,-3.00389 2.29273,-3.01277 2.28819,-3.02101 2.2902,-3.02862 2.29273,-3.03556 2.29021,-3.0419 2.29069,-3.04767 2.29172,-3.05283" /></g></g><g
   id="g248"
   transform="translate(-39.937,-14.95)" /><g
   id="g250" /><g
   id="g252" /><g
   id="g254" /><g
   id="g256" /><g
   id="g258" /><g
   id="g260"><g
     id="g262" /></g><g
   id="g264" /><g
   id="g266" /><g
   id="g268" /><g
   id="g270" /><g
   id="g662" /><g
   id="g664" /><g
   transform="rotate(-90,-26.551991,-101.4915)"
   id="g1463"><g
     transform="rotate(90,-56.7845,-47.9505)"
     id="g1461"><g
   transform="translate(104.735,-8.834)"
   id="g1459" /><text
   xml:space="preserve"
   style="font-style:normal;font-variant:normal;font-weight:normal;font-stretch:normal;font-size:30px;line-height:1.25;font-family:Chilanka;-inkscape-font-specification:Chilanka;letter-spacing:0px;word-spacing:0px;fill:#000000;fill-opacity:1;stroke:none;stroke-width:0.75"
   x="-6.9564705"
   y="-0.38566738"
   id="text1469"
   transform="scale(1,-1)"><tspan
     sodipodi:role="line"
     id="tspan1467"
     x="-6.9564705"
     y="-0.38566738"
     style="font-style:normal;font-variant:normal;font-weight:normal;font-stretch:normal;font-size:10px;font-family:sans-serif;-inkscape-font-specification:sans-serif;stroke-width:0.75">frequency [Hz]</tspan></text>

</g></g><text
   xml:space="preserve"
   style="font-style:normal;font-variant:normal;font-weight:normal;font-stretch:normal;font-size:30px;line-height:1.25;font-family:Chilanka;-inkscape-font-specification:Chilanka;letter-spacing:0px;word-spacing:0px;fill:#000000;fill-opacity:1;stroke:none;stroke-width:0.75"
   x="4.3154316"
   y="-24.51687"
   id="text1473"
   transform="matrix(0,1,1,0,0,0)"><tspan
     sodipodi:role="line"
     id="tspan1471"
     x="4.3154316"
     y="-24.51687"
     style="font-style:normal;font-variant:normal;font-weight:normal;font-stretch:normal;font-size:10px;font-family:sans-serif;-inkscape-font-specification:sans-serif;stroke-width:0.75">magnitude [dB]</tspan></text>

</g></svg>